<?xml version="1.0" standalone="no"?>
<!DOCTYPE svg PUBLIC "-//W3C//DTD SVG 20010904//EN"
 "http://www.w3.org/TR/2001/REC-SVG-20010904/DTD/svg10.dtd">
<svg version="1.0" xmlns="http://www.w3.org/2000/svg"
 width="476.000000pt" height="2688.000000pt" viewBox="0 0 476.000000 2688.000000"
 preserveAspectRatio="xMidYMid meet">

<g transform="translate(0.000000,2688.000000) scale(0.100000,-0.100000)"
fill="#000000" stroke="none">
<path d="M1706 26774 c-3 -9 -6 -37 -6 -64 l0 -48 -143 -4 c-134 -3 -146 -5
-179 -28 -19 -14 -61 -42 -91 -64 l-57 -39 -62 52 c-35 28 -70 51 -79 51 -39
0 -79 -76 -79 -151 l0 -37 -77 -4 c-78 -3 -153 -29 -161 -55 -2 -6 24 -33 57
-60 33 -26 60 -53 60 -59 1 -6 -7 -18 -18 -25 -53 -39 -767 -614 -774 -623 -4
-6 -4 -765 -1 -1686 9 -1998 8 -8823 0 -10090 -3 -492 -8 -1646 -11 -2565 -3
-918 -7 -1978 -10 -2355 -2 -377 -7 -1137 -10 -1690 -4 -553 -8 -1122 -11
-1265 -2 -143 -7 -1498 -11 -3011 -5 -2302 -4 -2752 7 -2759 8 -5 307 -7 664
-4 1110 7 1205 6 1216 -11 5 -8 10 -43 10 -77 0 -34 5 -65 10 -68 20 -12 116
25 169 66 l53 41 32 -30 c46 -44 111 -74 154 -70 l37 3 3 65 c2 35 8 71 15 79
10 12 91 13 577 8 311 -4 721 -10 913 -14 l347 -6 -2 929 -3 929 235 5 235 5
3 641 c2 577 1 643 -14 655 -11 9 -65 14 -192 16 -98 2 -196 6 -219 9 l-41 5
-6 72 c-3 40 -8 961 -11 2047 -6 2326 -14 4237 -20 4900 -2 261 -5 1089 -6
1840 l-1 1365 230 -2 231 -2 3 142 c2 78 1 363 -2 632 l-5 490 -222 5 c-122 3
-225 9 -230 13 -4 5 -8 1773 -9 3930 -1 3608 3 4758 16 4770 5 4 283 16 398
17 l52 0 0 635 0 635 -224 0 -223 0 -7 65 c-4 36 -6 242 -6 458 0 216 1 593 0
838 l0 446 -582 -1 -583 -1 -3 63 -3 62 -32 0 c-44 -1 -115 -34 -158 -76 l-35
-34 -30 31 c-39 42 -97 70 -147 72 l-42 2 -3 -60 c-2 -33 -9 -63 -15 -67 -14
-9 -378 -11 -401 -2 -12 5 -16 21 -16 65 0 46 -4 61 -17 66 -29 11 -106 -17
-161 -58 l-53 -40 -47 39 c-63 52 -163 79 -176 46z m139 -44 c70 -43 90 -140
42 -203 -27 -35 -101 -77 -137 -77 -19 0 -20 6 -20 153 0 85 3 156 6 159 8 9
74 -11 109 -32z m286 -21 c3 -30 3 -100 1 -156 l-5 -103 -26 0 c-38 0 -102 40
-128 79 -27 39 -30 95 -9 145 11 26 29 41 77 65 35 17 68 30 73 28 6 -2 14
-28 17 -58z m889 -98 c0 -75 -4 -142 -9 -150 -27 -42 -164 48 -177 115 -14 75
38 150 125 180 57 20 61 10 61 -145z m-310 132 c14 -9 40 -30 58 -46 27 -26
32 -38 32 -75 0 -86 -59 -155 -144 -169 l-36 -6 0 150 c0 82 3 153 7 156 12
13 58 7 83 -10z m-1505 -232 c126 -101 150 -125 142 -144 -6 -17 -51 -27 -121
-27 -94 0 -186 81 -186 165 0 38 27 95 45 95 5 0 60 -40 120 -89z m495 -9 c0
-77 8 -87 60 -78 50 8 83 24 130 65 38 34 55 38 63 17 18 -46 167 -111 193
-83 7 6 15 41 17 77 3 36 6 66 6 68 1 1 94 1 209 0 l207 -3 2 -25 c0 -14 1
-46 2 -72 l1 -48 35 0 c50 0 97 22 148 69 l44 40 38 -39 c43 -44 107 -73 151
-68 28 3 29 5 38 74 l8 71 67 7 c36 3 94 6 129 6 l62 0 0 -37 c0 -21 0 -2377
0 -5236 l0 -5197 -135 -268 -135 -267 -6 -645 c-11 -1030 -6 -2040 10 -2070 7
-14 69 -135 138 -270 l126 -245 8 -3760 c4 -2068 7 -4673 8 -5789 l1 -2028
-77 -97 c-42 -53 -125 -159 -185 -236 l-109 -140 -270 -3 -271 -2 -9 67 c-8
64 -11 68 -36 71 -37 4 -107 -28 -157 -73 l-42 -38 -27 26 c-30 29 -147 87
-175 87 -21 0 -25 -9 -35 -82 l-7 -57 -233 -4 -232 -4 -245 234 -245 235 -1
596 c-1 328 -4 622 -7 652 l-7 55 -87 -3 -88 -2 0 75 c0 87 -5 83 125 87 l80
3 3 30 c4 40 -31 91 -88 129 -39 27 -42 31 -25 40 78 45 127 124 105 167 -11
20 -18 21 -106 17 l-95 -4 3 51 3 50 82 3 c48 2 85 8 91 15 6 7 12 761 16
2007 4 1097 9 2114 11 2260 12 664 23 5985 13 5995 -2 2 -41 5 -88 8 l-85 4
-6 34 c-10 44 -5 49 45 49 24 0 71 3 105 6 68 8 73 16 47 79 -12 29 -68 80
-109 99 -9 4 -8 8 2 12 26 12 92 77 107 105 8 16 14 39 14 54 l0 25 -111 0
-110 0 4 58 4 57 44 5 c43 5 44 5 51 52 5 25 7 315 6 645 l-3 598 -47 3 -48 3
0 59 0 58 88 7 c144 10 149 13 116 78 -22 42 -52 76 -87 94 l-29 14 61 57 c62
59 82 101 61 127 -10 11 -36 15 -111 15 l-99 0 0 28 c0 44 16 52 101 52 l77 0
7 78 c7 63 8 7930 2 8027 l-2 30 -92 9 -93 9 0 53 c0 29 4 56 10 59 5 3 43 8
82 11 111 8 118 10 118 42 0 34 -28 77 -77 120 l-38 32 38 33 c51 43 77 85 77
124 l0 32 -102 3 -103 3 0 35 0 35 86 3 87 3 6 31 c3 17 6 448 6 959 l0 929
-49 0 c-28 0 -52 4 -55 9 -3 5 12 21 33 35 l39 27 47 -35 c25 -20 53 -36 60
-36 8 0 27 17 42 37 21 27 29 51 33 97 l5 60 58 -3 c60 -3 117 11 154 38 30
22 29 32 -12 71 -19 19 -35 39 -35 45 0 10 56 56 109 90 20 13 220 23 244 12
13 -6 17 -20 17 -65z m2388 -200 c-2 -150 -7 -255 -13 -260 -5 -5 -169 -12
-362 -16 l-353 -6 0 265 c0 146 1 266 3 267 7 5 713 12 720 7 5 -4 7 -119 5
-257z m-3051 87 c56 -27 93 -80 93 -134 0 -48 -34 -110 -53 -98 -26 16 -267
217 -267 223 0 14 59 28 119 29 47 1 77 -5 108 -20z m-72 -599 c-2 -154 -7
-284 -10 -290 -4 -7 -56 -9 -151 -7 -131 3 -146 6 -164 25 -11 11 -28 23 -40
27 -33 11 -23 21 32 31 63 11 77 34 21 34 -22 0 -44 5 -50 11 -8 8 -17 8 -31
0 -11 -6 -30 -11 -42 -11 -20 0 -22 -4 -16 -34 4 -18 2 -45 -3 -59 l-10 -25
-131 4 c-73 2 -136 6 -141 10 -22 13 -6 51 43 99 54 52 211 175 224 175 4 0
12 -6 18 -14 6 -8 26 -16 45 -18 30 -3 36 0 41 22 6 27 40 41 40 17 0 -8 -10
-27 -21 -42 -17 -21 -28 -26 -49 -21 -19 3 -33 -1 -44 -13 -33 -36 -12 -83 30
-67 13 5 14 9 4 21 -7 9 -9 19 -5 23 4 4 10 1 12 -5 6 -18 28 -16 43 2 9 11
16 13 23 6 7 -7 5 -17 -7 -30 -13 -14 -14 -21 -5 -27 8 -4 21 3 36 20 27 32
28 39 6 61 -15 16 -15 19 2 48 18 30 18 30 -9 54 -35 30 -42 29 -76 -7 -28
-30 -46 -27 -34 5 4 9 70 70 148 135 l141 119 67 1 66 0 -3 -280z m3123 -70
c-3 -143 -7 -262 -9 -264 -2 -2 -165 -7 -361 -10 l-357 -7 -3 153 c-2 84 -2
206 0 270 l3 117 366 1 366 0 -5 -260z m-3500 -218 c3 -9 -2 -13 -14 -10 -9 1
-19 9 -22 16 -3 9 2 13 14 10 9 -1 19 -9 22 -16z m367 -63 c8 -12 7 -548 -1
-560 -9 -15 -708 -11 -722 3 -9 9 -12 86 -12 283 0 150 3 275 7 278 11 12 721
8 728 -4z m3133 -293 c1 -143 -1 -263 -6 -268 -4 -4 -168 -11 -365 -14 l-357
-7 0 266 c0 147 1 267 3 267 1 0 155 3 342 7 187 3 342 7 345 10 2 2 11 2 20
1 13 -3 15 -38 18 -262z m-3138 -326 c13 -8 15 -50 15 -277 -1 -147 -4 -276
-8 -285 -6 -17 -33 -18 -372 -18 l-365 0 0 279 c0 154 3 286 6 295 5 13 51 15
357 16 209 0 358 -4 367 -10z m3378 3 c-10 -2 -26 -2 -35 0 -10 3 -2 5 17 5
19 0 27 -2 18 -5z m-653 -138 c0 -71 -2 -164 -5 -205 l-5 -75 -85 -5 c-83 -5
-85 -6 -88 -32 -5 -39 23 -85 74 -121 24 -17 44 -33 44 -36 0 -3 -16 -16 -34
-28 -48 -31 -85 -83 -88 -124 l-3 -34 90 -3 c49 -2 92 -6 94 -8 12 -12 -19
-19 -92 -24 -80 -5 -82 -6 -85 -32 -6 -50 49 -119 113 -142 19 -8 19 -8 -5
-24 -52 -35 -87 -73 -105 -111 -29 -65 -21 -71 84 -64 65 4 91 3 91 -6 0 -8
-47 -11 -165 -11 l-165 0 0 603 c0 332 3 607 7 611 4 3 79 5 167 4 l161 -3 0
-130z m886 -459 c0 -313 -3 -571 -6 -574 -22 -22 -25 56 -26 570 -1 305 2 561
6 567 23 39 26 -26 26 -563z m77 12 c2 -298 1 -552 -3 -566 -28 -112 -42 266
-30 801 5 245 10 326 19 317 8 -8 12 -166 14 -552z m-631 532 c16 -18 19 -18
40 -4 27 17 45 10 41 -14 -1 -10 1 -23 6 -30 4 -8 4 -44 0 -80 -5 -37 -8 -79
-6 -94 l2 -26 -108 -4 c-59 -2 -115 -2 -124 0 -16 4 -18 16 -13 126 l4 121 49
-3 c34 -2 53 2 62 13 17 20 27 19 47 -5z m253 -555 l2 -560 -22 -3 -22 -4 5
561 c4 309 9 566 13 572 3 6 10 7 15 2 4 -4 9 -260 9 -568z m78 10 c1 -308 0
-566 -3 -574 -4 -10 -8 -11 -20 -1 -13 10 -15 92 -15 577 0 532 1 564 18 561
16 -3 17 -39 20 -563z m75 538 c6 -31 -3 -1106 -9 -1112 -16 -17 -19 77 -22
575 -2 482 -1 564 11 564 8 0 17 -12 20 -27z m72 -535 c0 -306 -3 -559 -7
-563 -25 -26 -28 28 -28 566 0 528 1 560 18 557 16 -3 17 -38 17 -560z m-305
197 c0 -6 -43 -13 -96 -17 -54 -4 -101 -11 -106 -16 -6 -6 -5 -26 3 -51 11
-39 50 -83 96 -110 16 -10 14 -15 -27 -53 -59 -55 -80 -87 -80 -120 l0 -28
111 0 c84 0 110 -3 107 -12 -3 -9 -36 -15 -99 -18 -101 -5 -119 -11 -119 -39
0 -32 58 -111 95 -128 19 -9 35 -19 35 -22 -1 -3 -15 -15 -32 -26 -48 -31 -90
-88 -91 -126 l-2 -34 328 0 c180 0 327 -3 327 -7 0 -5 -109 -8 -242 -9 -134 0
-328 -3 -431 -5 -132 -4 -187 -2 -182 5 3 6 37 11 74 11 78 0 96 12 85 55 -8
34 -84 115 -107 115 -27 0 -20 13 28 53 52 44 77 87 73 125 -3 27 -4 27 -98
32 -112 6 -106 18 12 26 45 3 87 9 91 13 17 17 -9 69 -63 123 l-58 57 34 23
c44 30 84 87 87 124 l2 29 -95 5 c-96 5 -122 19 -58 31 54 11 398 5 398 -6z
m-10 -110 c0 -72 -13 -91 -52 -76 -56 21 -132 111 -111 132 10 9 85 15 131 10
l32 -3 0 -63z m-267 59 c9 -9 -11 -56 -36 -83 -40 -43 -94 -60 -172 -55 -81 6
-114 22 -149 67 -34 44 -33 65 2 70 44 7 348 8 355 1z m-3113 -209 l0 -45 -81
0 c-60 0 -80 -3 -76 -12 3 -10 48 -13 183 -13 l179 0 3 -23 c5 -32 -71 -106
-121 -120 -44 -12 -141 -5 -177 13 -43 22 -83 72 -89 112 -7 42 -24 47 -29 9
-5 -35 22 -81 65 -112 21 -16 42 -31 47 -36 5 -4 -11 -26 -38 -49 -74 -65 -99
-133 -53 -144 12 -3 58 -6 102 -7 l80 -3 0 -65 0 -65 -245 -2 c-135 0 -263 2
-285 6 l-40 7 0 54 0 55 92 5 c51 3 97 10 103 16 19 19 -18 90 -69 134 l-46
39 52 53 c29 29 57 66 63 82 17 47 1 56 -100 56 -97 0 -100 2 -100 66 l0 34
290 0 290 0 0 -45z m3044 -2 c46 -33 72 -72 63 -96 -6 -15 -28 -17 -190 -17
-101 0 -186 3 -190 6 -9 10 17 55 51 87 68 65 190 74 266 20z m334 -21 c5 -81
-6 -92 -88 -92 -38 0 -72 5 -75 10 -15 24 32 85 85 113 29 15 58 26 64 24 6
-2 12 -27 14 -55z m-3790 -80 c7 -47 -120 -141 -158 -117 -11 7 -14 128 -3
139 4 4 41 5 83 4 70 -3 75 -5 78 -26z m3790 -162 l3 -73 -38 6 c-21 4 -49 15
-63 25 -31 23 -72 82 -67 96 3 9 121 25 152 21 6 -1 11 -34 13 -75z m-258 65
c0 -3 -6 -20 -14 -39 -25 -61 -105 -106 -188 -106 -80 0 -144 34 -175 93 -28
55 -22 57 187 57 104 0 190 -2 190 -5z m-3631 -74 c46 -24 101 -84 101 -111 0
-18 -7 -20 -79 -20 l-79 0 -7 31 c-9 40 5 119 21 119 3 0 22 -9 43 -19z m642
-7 c39 -23 81 -80 77 -103 -3 -14 -31 -16 -196 -18 -105 -1 -194 2 -196 6 -16
25 62 108 124 134 31 14 157 0 191 -19z m2884 -113 c71 -32 120 -109 79 -125
-9 -3 -94 -6 -190 -6 -170 0 -174 0 -174 21 0 60 105 129 194 129 28 0 69 -9
91 -19z m365 -50 c0 -80 -1 -81 -96 -81 -78 0 -88 13 -51 69 25 37 94 81 130
81 14 0 17 -10 17 -69z m-3204 -381 c1 -124 -1 -255 -4 -292 l-4 -68 -359 0
c-344 0 -359 1 -369 19 -11 22 -14 356 -3 489 l6 82 366 -2 366 -3 1 -225z
m3121 -63 c1 -178 -1 -289 -7 -292 -6 -4 -169 -9 -364 -12 l-353 -6 -6 49 c-5
50 -10 532 -5 536 3 2 704 14 723 12 6 0 11 -105 12 -287z m-3120 -618 c2
-231 0 -289 -11 -298 -9 -8 -118 -10 -371 -9 l-358 3 0 220 c0 121 1 253 2
292 l1 73 348 3 c191 1 356 2 367 2 19 0 20 -8 22 -286z m3121 28 c1 -136 -1
-269 -5 -294 l-8 -47 -360 -1 -360 0 -2 246 c-1 135 1 266 5 290 l8 44 344 5
c190 3 352 5 360 5 13 0 15 -36 18 -248z m-3120 -675 l2 -292 -367 2 -368 3
-5 225 c-3 124 -3 255 -1 293 l3 67 367 -2 366 -3 3 -293z m3113 201 c4 -339
3 -482 -4 -489 -4 -4 -168 -8 -365 -8 l-357 -1 -3 120 c-2 66 0 198 3 292 l7
173 317 3 c174 1 335 3 359 5 l42 2 1 -97z m-3113 -822 l-3 -296 -235 -1
c-129 0 -295 2 -368 4 l-132 4 2 287 3 286 45 5 c25 3 190 6 368 6 l322 1 -2
-296z m3115 -4 c-3 -161 -7 -293 -8 -295 -2 -2 -161 -5 -354 -7 -336 -4 -351
-3 -361 15 -11 20 -14 469 -4 532 5 28 12 38 28 40 11 2 175 4 363 5 l342 2
-6 -292z m-3115 -627 l2 -295 -357 3 c-197 2 -364 5 -370 7 -10 3 -13 71 -13
295 l0 290 368 -2 367 -3 3 -295z m3117 8 c-4 -156 -11 -287 -16 -293 -6 -6
-145 -11 -364 -13 l-355 -3 0 290 0 290 53 4 c28 2 195 4 371 5 l318 2 -7
-282z m-3127 -350 c16 -16 17 -554 1 -564 -12 -7 -601 -12 -682 -6 l-47 4 0
289 0 289 358 0 c265 0 361 -3 370 -12z m3132 -145 c0 -87 -3 -220 -7 -295
l-6 -138 -363 0 -364 0 0 229 c0 125 3 256 6 289 l7 62 256 2 c141 2 305 4
364 6 l108 3 -1 -158z m-3120 -735 c0 -150 -3 -283 -6 -296 l-6 -22 -351 0
c-232 1 -356 5 -364 12 -10 8 -13 75 -13 289 l0 278 53 3 c28 2 195 5 370 6
l317 4 0 -274z m3111 5 c1 -142 2 -271 3 -286 1 -16 -1 -30 -4 -31 -3 -2 -167
-5 -365 -7 l-360 -4 -3 210 c-2 116 0 247 3 293 l7 82 359 0 359 0 1 -257z
m-3113 -642 c1 -157 -1 -288 -5 -292 -5 -5 -170 -9 -368 -10 l-360 -1 0 289 0
288 70 5 c39 3 203 5 365 5 l295 0 3 -284z m3114 37 c1 -214 -1 -329 -5 -335
-1 0 -164 -3 -362 -5 l-360 -3 -2 220 c-2 121 0 253 3 293 l6 72 359 0 359 0
2 -242z m-3112 -380 c10 -13 2 -560 -8 -570 -10 -10 -707 -12 -723 -2 -5 3 -9
126 -8 289 l0 285 257 2 c392 4 477 4 482 -4z m3104 -9 c3 -2 6 -133 7 -289
l2 -284 -367 -3 -366 -3 0 289 0 290 58 4 c77 6 660 2 666 -4z m-3104 -616 c5
-4 2 -577 -3 -578 -1 0 -167 1 -369 3 l-368 3 0 288 c0 158 3 291 7 294 7 7
725 -3 733 -10z m3108 -277 c1 -154 -1 -283 -6 -288 -4 -4 -167 -9 -362 -10
l-355 -3 -3 287 -2 287 57 3 c32 2 195 3 363 3 l305 0 3 -279z m-3381 -336
l273 0 0 -295 0 -295 -370 0 -370 0 0 293 c0 162 3 297 8 301 4 5 47 6 96 2
49 -3 212 -6 363 -6z m3380 -14 c8 -8 5 -554 -3 -567 -3 -5 -165 -7 -362 -6
l-357 2 -3 287 -2 287 127 3 c233 5 593 2 600 -6z m-3657 -821 l0 -215 -33 0
c-18 0 -42 6 -53 14 -16 13 -21 12 -36 -1 -9 -8 -27 -13 -40 -11 l-23 3 -3
200 c-1 110 0 205 2 212 4 9 32 13 96 13 l90 0 0 -215z m548 -76 l2 -287 -247
-4 c-137 -3 -251 -3 -255 -1 -4 2 -7 134 -8 293 l0 290 252 -2 253 -3 3 -286z
m3114 129 c2 -90 2 -220 0 -290 l-3 -126 -122 -7 c-67 -3 -230 -5 -362 -3
l-240 3 -2 280 c-2 154 -1 286 2 293 3 9 85 12 364 12 l360 0 3 -162z m-3662
-358 l0 -60 -49 0 c-26 0 -69 -3 -95 -6 l-46 -7 0 67 0 66 95 0 95 0 0 -60z
m548 -392 l2 -288 -137 -1 c-240 -1 -596 1 -599 4 -7 6 -6 556 1 566 4 8 113
10 368 9 l362 -3 3 -287z m3105 285 c3 -5 8 -115 12 -245 l8 -238 -491 0
c-322 0 -493 3 -497 10 -4 6 42 104 101 218 59 114 114 219 122 235 l13 27
364 0 c200 0 366 -3 368 -7z m11 -858 l0 -340 -500 0 -499 0 0 325 c0 179 3
332 6 340 6 13 71 15 500 15 l494 0 -1 -340z m-3294 209 l0 -44 -82 -2 c-46
-1 -92 -2 -103 -2 -11 -1 -21 -9 -23 -19 -6 -33 39 -108 85 -140 43 -31 54
-47 30 -47 -23 0 -83 -58 -101 -99 -30 -65 -22 -71 94 -71 l100 0 0 -65 0 -65
-278 0 c-203 0 -281 3 -290 12 -7 7 -12 33 -12 60 l0 47 103 3 102 3 -1 40
c-2 35 -9 46 -60 94 -53 49 -57 55 -40 65 59 34 90 75 111 144 6 22 5 22 -84
22 -117 0 -121 2 -121 56 l0 43 158 3 c86 2 214 4 285 4 l127 2 0 -44z m215
-84 c11 -19 -49 -91 -97 -116 -103 -53 -235 -16 -284 79 -8 15 -12 32 -9 37 8
14 382 13 390 0z m-617 -22 c4 -23 -56 -88 -103 -109 -64 -29 -66 -28 -63 49
l3 67 40 6 c69 11 119 6 123 -13z m495 -159 c21 -5 53 -23 71 -40 33 -29 60
-81 49 -93 -4 -3 -91 -6 -195 -6 -207 0 -215 2 -183 57 44 75 157 111 258 82z
m-569 -31 c42 -27 88 -90 75 -102 -4 -4 -99 -9 -146 -7 -21 1 -23 6 -23 64 0
35 3 67 7 70 13 14 41 6 87 -25z m13 -287 c27 -1 36 -7 53 -40 30 -60 87 -110
132 -117 22 -4 43 -14 48 -25 6 -10 10 -85 10 -167 l0 -149 -175 -1 -175 -2 0
255 0 254 38 -4 c20 -1 52 -3 69 -4z m558 -616 l0 -620 -142 -3 -142 -3 -3 68
c-2 38 -2 316 0 620 l2 552 98 4 c53 2 117 3 142 3 l45 -1 0 -620z m-315 545
c0 -64 -2 -70 -20 -70 -54 0 -139 67 -153 121 -5 18 2 19 84 19 l89 0 0 -70z
m3092 59 c15 -8 18 -23 18 -99 l0 -90 -82 0 c-106 0 -115 -6 -100 -58 12 -38
79 -112 102 -112 23 0 6 -28 -44 -72 -53 -47 -79 -99 -59 -119 5 -5 48 -12 96
-15 l88 -7 -3 -31 -3 -31 -85 0 -85 0 -3 -33 c-4 -43 26 -90 77 -122 22 -14
40 -27 40 -30 0 -3 -19 -19 -42 -35 -78 -57 -113 -139 -64 -150 12 -3 54 -6
92 -7 l70 -3 3 -98 3 -97 -313 3 -313 2 -2 530 c-1 292 1 562 4 602 l6 72 101
3 c261 7 481 6 498 -3z m933 2 c88 -13 27 -21 -185 -23 l-205 -3 -3 -82 -3
-83 -115 0 c-99 0 -116 -2 -121 -17 -11 -28 39 -105 91 -140 46 -31 46 -32 24
-44 -63 -32 -132 -129 -113 -159 4 -6 52 -10 116 -10 l109 0 0 -39 0 -39 -112
1 -113 2 3 -30 c5 -45 33 -86 84 -124 l46 -34 -46 -31 c-26 -18 -56 -50 -71
-77 -39 -70 -26 -79 110 -79 l109 0 0 -85 0 -85 198 -1 c190 -1 265 -8 232
-23 -8 -3 -211 -5 -450 -4 l-435 3 -3 86 c-2 62 1 89 11 97 7 6 51 12 97 14
l85 3 -1 37 c-1 46 -37 96 -88 123 -20 11 -36 22 -36 25 0 3 18 15 40 28 45
25 93 99 88 134 -3 22 -7 23 -98 24 l-95 0 -3 31 -3 31 102 7 101 7 -6 36 c-7
43 -51 100 -94 121 -17 9 -32 19 -32 23 0 3 15 15 34 26 46 27 88 85 89 124
l2 33 -97 3 -98 3 0 93 c0 51 3 96 7 99 9 9 785 7 848 -2z m-335 -268 c1 -120
2 -365 3 -545 2 -248 -1 -330 -10 -339 -7 -7 -15 -10 -18 -8 -6 7 -15 1090 -9
1101 3 4 12 8 20 8 12 0 14 -35 14 -217z m78 -329 c1 -296 0 -546 -4 -554 -4
-13 -8 -12 -20 4 -12 17 -14 103 -14 527 0 278 3 521 6 538 4 18 12 30 18 28
8 -3 12 -157 14 -543z m68 514 c11 -44 11 -1050 1 -1065 -5 -6 -14 -10 -20 -7
-9 3 -12 137 -11 537 0 292 1 540 2 550 3 28 20 19 28 -15z m78 9 c8 -32 8
-1072 0 -1080 -4 -4 -13 -2 -21 4 -20 17 -19 1099 1 1099 8 0 16 -10 20 -23z
m77 -314 c1 -186 2 -432 3 -548 1 -209 1 -210 -21 -213 l-22 -3 5 518 c4 520
7 583 24 583 6 0 11 -131 11 -337z m77 -207 c-3 -482 -6 -572 -22 -555 -15 15
-25 1066 -11 1089 4 6 13 10 21 10 13 0 15 -68 12 -544z m-732 356 c-26 -107
-178 -157 -297 -97 -46 24 -89 73 -89 102 0 14 36 17 239 20 l153 2 -6 -27z
m238 22 c12 -5 16 -21 16 -75 0 -77 -6 -82 -63 -53 -59 30 -117 100 -102 124
7 11 124 14 149 4z m-335 -197 c52 -27 106 -89 98 -112 -6 -13 -31 -15 -194
-13 l-188 3 3 25 c4 34 38 69 97 96 64 30 126 31 184 1z m349 -49 l-3 -73 -82
-3 c-92 -3 -97 1 -63 55 18 31 111 93 138 93 10 0 12 -18 10 -72z m-3787 -82
c12 -42 75 -103 128 -123 26 -9 52 -21 59 -26 9 -7 12 -74 12 -273 l0 -264
-174 0 c-130 0 -175 3 -178 13 -8 20 -1 683 6 696 5 8 31 11 74 9 63 -3 66 -4
73 -32z m197 -35 c2 -35 -1 -68 -6 -73 -10 -10 -83 19 -112 44 -21 18 -60 69
-60 79 0 9 70 16 135 15 l40 -1 3 -64z m3342 -86 c0 -28 -29 -73 -62 -99 -93
-70 -243 -49 -305 43 -41 60 -41 60 155 64 97 1 185 4 195 5 10 1 17 -5 17
-13z m260 -59 c0 -85 -11 -93 -79 -60 -53 27 -109 93 -96 113 3 7 42 11 91 11
l84 0 0 -64z m-345 -139 c39 -22 85 -78 85 -103 0 -11 -23 -14 -97 -16 -119
-2 -286 3 -292 8 -3 2 3 19 12 38 19 40 75 85 120 97 47 12 126 1 172 -24z
m339 11 c9 -35 7 -97 -4 -118 -9 -17 -19 -19 -88 -14 -42 3 -79 7 -81 9 -2 2
7 23 20 46 18 31 39 50 79 70 67 35 66 35 74 7z m-748 -736 l2 -342 -174 0
-174 0 0 340 0 340 163 2 c89 2 167 3 172 2 6 0 11 -123 11 -342z m-2628 266
l-3 -63 -97 -3 c-119 -3 -130 -12 -96 -74 13 -24 44 -58 70 -77 l47 -35 -48
-32 c-56 -38 -96 -106 -80 -136 8 -16 23 -18 109 -18 99 0 100 0 100 -24 0
-14 -4 -36 -10 -50 l-10 -26 -263 0 c-290 0 -301 2 -295 55 l3 30 93 5 c98 6
114 14 104 54 -8 33 -51 86 -88 108 -19 11 -34 23 -34 26 0 4 13 14 29 24 41
22 91 95 91 130 0 27 -2 28 -52 29 -51 2 -76 3 -125 7 -25 2 -28 23 -17 95 l7
37 284 0 284 0 -3 -62z m2957 -61 c11 -1 25 -5 31 -9 6 -4 25 -2 41 4 25 9 37
8 66 -5 19 -10 42 -14 51 -11 23 9 37 -37 33 -110 -2 -34 -6 -67 -10 -73 -4
-6 0 -23 8 -39 11 -23 12 -37 2 -72 -9 -35 -9 -45 2 -51 11 -7 8 -13 -13 -26
-18 -12 -30 -14 -39 -7 -6 5 -22 13 -34 16 -17 6 -23 3 -23 -8 0 -19 -4 -19
-50 -6 -26 7 -39 6 -57 -5 -26 -17 -70 -19 -109 -5 -16 6 -31 7 -38 1 -6 -5
-22 -12 -35 -16 -23 -7 -24 -6 -16 26 4 19 8 44 9 56 0 12 4 25 9 29 12 13 8
35 -14 66 l-21 29 21 20 c25 24 26 35 5 43 -8 3 -12 11 -8 18 11 17 13 68 3
74 -14 8 -10 27 10 51 18 21 21 22 48 8 37 -20 46 -19 40 4 -4 17 -1 17 32 9
20 -5 45 -10 56 -11z m-2745 -44 c0 -26 -40 -72 -84 -98 -80 -47 -182 -42
-245 11 -39 33 -75 83 -66 92 7 8 336 19 373 13 12 -2 22 -10 22 -18z m-614
-4 c3 -6 -7 -27 -23 -47 -56 -70 -132 -104 -147 -66 -8 21 -8 109 1 117 11 12
161 8 169 -4z m521 -176 c41 -19 95 -79 91 -101 -3 -15 -29 -18 -191 -26 -203
-10 -218 -7 -197 35 52 101 187 142 297 92z m-590 -29 c39 -29 76 -85 65 -96
-6 -5 -113 -12 -159 -9 -9 1 -13 22 -13 72 l0 72 36 -6 c20 -3 52 -18 71 -33z
m3243 -23 c0 -6 -4 -13 -10 -16 -5 -3 -10 1 -10 9 0 9 5 16 10 16 6 0 10 -4
10 -9z m-2598 -516 c-2 -159 -4 -291 -5 -292 -1 -1 -168 -5 -370 -9 l-367 -7
-2 277 c-1 152 -2 284 -2 294 -1 15 16 17 179 22 99 3 268 5 375 5 l195 0 -3
-290z m3123 123 c3 -46 5 -156 3 -246 l-3 -163 -365 1 c-274 0 -368 4 -377 13
-12 13 -243 459 -243 471 0 3 220 6 489 6 l489 0 7 -82z m-11 -457 c3 -5 9
-138 12 -296 l7 -287 -362 6 c-200 3 -367 9 -372 12 -11 6 -11 251 -2 457 l6
117 353 0 c196 0 355 -4 358 -9z m-3114 -295 l0 -294 -127 -4 c-71 -2 -238 -3
-373 -3 l-245 0 1 290 0 290 50 6 c27 3 194 7 372 7 l322 2 0 -294z m3128
-620 l2 -296 -359 0 c-277 0 -362 3 -368 13 -4 6 -8 137 -9 290 -1 216 2 279
12 285 7 4 172 6 366 5 l353 -1 3 -296z m-3131 -1 c2 -154 0 -285 -5 -292 -8
-12 -623 -27 -700 -16 l-43 6 3 288 2 288 56 4 c30 2 197 3 370 3 l315 -1 2
-280z m2989 -335 l141 0 -1 -292 -1 -293 -361 -3 -361 -2 -7 290 c-4 160 -4
295 0 301 4 8 74 9 228 5 121 -3 284 -5 362 -6z m-2988 -306 l2 -291 -97 -5
c-54 -3 -224 -5 -377 -4 l-279 1 2 290 c1 159 5 293 7 297 3 5 170 7 372 6
l367 -3 3 -291z m3130 -628 l2 -299 -232 6 c-128 4 -295 7 -371 7 l-138 0 5
148 c2 81 5 213 5 295 l1 147 363 -2 362 -3 3 -299z m-3134 1 c-1 -158 -5
-291 -9 -295 -3 -4 -171 -8 -371 -10 l-364 -4 -2 244 c-1 248 1 337 8 350 3 4
170 6 372 5 l367 -2 -1 -288z m3131 -339 c3 -3 6 -137 6 -299 l1 -294 -358 3
c-198 2 -363 7 -367 12 -10 9 -10 567 -1 582 6 10 709 6 719 -4z m-3138 -11
c8 -5 11 -84 9 -292 -2 -157 -5 -287 -8 -290 -3 -3 -167 -8 -364 -12 -315 -5
-361 -4 -372 9 -9 12 -12 82 -10 299 l3 284 250 5 c342 7 478 6 492 -3z m3134
-634 c8 -8 13 -95 17 -291 4 -231 2 -281 -9 -288 -14 -9 -707 -6 -721 2 -10 6
-10 578 -1 588 13 13 701 2 714 -11z m-3130 -80 c2 -151 -2 -508 -6 -511 -2
-2 -169 -4 -372 -5 l-368 -2 -3 297 c-2 277 -1 297 15 300 10 2 179 4 375 6
l358 3 1 -88z m3141 -561 c5 -5 7 -139 6 -298 l-3 -289 -357 1 c-197 0 -361 4
-365 8 -9 9 -17 562 -8 584 5 13 50 14 362 8 197 -3 361 -10 365 -14z m-3147
-289 c0 -160 -4 -295 -8 -300 -5 -4 -172 -10 -372 -11 l-364 -4 -6 44 c-3 23
-4 102 -1 173 3 72 5 187 5 257 l1 127 103 3 c56 2 224 3 372 3 l270 0 0 -292z
m3141 -357 c8 -7 13 -105 17 -297 l6 -287 -37 -4 c-31 -4 -366 -1 -621 5 l-75
2 -8 34 c-11 41 -6 541 5 559 11 17 696 6 713 -12z m-3142 -23 c3 -21 6 -158
6 -305 l0 -268 -132 0 c-73 0 -235 -3 -359 -7 -163 -4 -232 -2 -247 6 -22 12
-22 14 -22 306 l1 295 207 3 c114 1 282 3 373 5 l166 2 7 -37z m3102 -609 l59
-6 2 -300 2 -300 -360 4 c-242 3 -364 9 -371 16 -11 11 -24 551 -14 578 4 12
61 14 314 14 170 0 336 -3 368 -6z m-3105 -176 c1 -207 -2 -432 -5 -435 -6 -6
-738 -4 -744 2 -7 7 -4 584 3 596 3 4 171 7 375 8 l370 2 1 -173z m3147 -474
l22 -4 -2 -298 -3 -297 -365 3 c-200 2 -367 5 -370 8 -6 7 -13 571 -7 588 4 9
89 11 353 8 192 -1 359 -5 372 -8z m-3158 -14 c15 -28 14 -577 -2 -586 -6 -4
-127 -9 -267 -11 -141 -2 -307 -5 -368 -7 l-113 -3 0 303 c0 167 1 305 3 306
2 2 348 11 604 15 122 2 133 1 143 -17z m3177 -634 c1 -1 3 -136 4 -301 l2
-300 -369 4 c-203 2 -370 4 -371 5 -2 2 -6 461 -4 537 l1 67 368 -5 c202 -3
368 -6 369 -7z m-3177 -11 c10 -12 12 -71 6 -302 -3 -157 -9 -289 -12 -292 -3
-3 -118 -7 -255 -10 l-249 -3 -2 33 c-2 19 -3 155 -3 302 0 260 1 268 20 272
26 6 100 9 311 13 146 3 172 1 184 -13z m-558 -97 c0 -57 2 -146 2 -198 l1
-95 -40 4 c-22 1 -47 7 -55 11 -9 5 -23 3 -35 -6 -10 -8 -27 -14 -37 -14 -10
0 -18 -4 -18 -9 0 -16 39 -23 113 -19 53 2 72 0 71 -9 -1 -7 -2 -49 -2 -93
l-2 -80 -89 0 c-52 0 -93 4 -96 10 -7 12 -13 589 -6 596 2 2 46 4 98 4 l93 0
2 -102z m3728 -544 c3 -3 5 -137 5 -297 l0 -292 -359 -3 c-244 -1 -363 1 -370
8 -11 11 -21 562 -11 588 4 11 71 12 367 7 200 -3 365 -9 368 -11z m-3172
-301 l2 -301 -82 -4 c-46 -2 -216 -3 -378 -3 l-295 0 -2 155 c-1 85 0 221 4
302 l6 147 101 3 c56 2 223 3 371 3 l270 0 3 -302z m3046 -342 l139 -6 -1
-190 c-1 -104 -1 -238 -1 -297 l-1 -108 -370 0 -370 0 -1 183 c-1 100 -3 235
-5 299 l-3 117 37 4 c55 6 417 5 576 -2z m-3049 -299 c0 -184 -4 -297 -10
-302 -5 -4 -173 -10 -372 -13 -315 -5 -362 -3 -367 10 -3 8 -6 145 -6 303 l0
289 43 3 c23 2 193 3 377 3 l335 0 0 -293z m3060 -345 l130 -2 -1 -175 c-1
-96 -2 -231 -3 -300 l-1 -125 -367 3 c-203 2 -369 5 -371 7 -2 2 -4 131 -5
288 -1 202 2 288 10 298 11 14 109 15 608 6z m-3057 -314 l2 -303 -293 0
c-162 0 -327 -3 -368 -6 -41 -3 -80 -1 -87 4 -11 8 -14 67 -14 297 1 158 4
291 9 296 16 15 61 16 403 15 l345 -1 3 -302z m-7 -350 c5 -5 8 -134 7 -302
l-3 -293 -374 -5 c-310 -5 -375 -3 -382 8 -10 17 -11 496 -1 554 l7 40 265 5
c338 6 470 4 481 -7z m2767 9 c9 -3 12 -56 12 -218 l0 -214 -67 -1 c-38 -1
-79 -4 -93 -8 -58 -16 -20 -117 60 -163 22 -13 40 -25 40 -28 0 -3 -18 -16
-39 -29 -61 -37 -113 -136 -83 -155 5 -3 46 -8 90 -12 45 -4 82 -11 82 -15 0
-7 -104 -15 -133 -10 -19 3 -47 -22 -47 -42 0 -37 56 -115 95 -134 19 -9 35
-20 35 -23 0 -3 -16 -14 -35 -23 -39 -19 -95 -97 -95 -134 0 -31 40 -47 101
-40 25 3 52 1 60 -4 9 -6 -45 -8 -146 -7 l-160 3 -3 620 c-1 341 0 626 3 633
4 11 39 13 157 11 84 -1 159 -4 166 -7z m881 -18 c2 -2 -51 -4 -118 -4 -75 0
-120 4 -116 10 5 8 224 3 234 -6z m-627 -47 c26 -7 50 -16 53 -19 4 -4 28 0
53 8 26 7 50 14 53 14 12 0 17 -54 8 -72 -7 -12 -6 -18 2 -18 7 0 9 -15 4 -49
-4 -27 -2 -66 4 -87 12 -42 1 -65 -21 -46 -7 5 -57 12 -110 14 l-98 3 -6 35
c-9 53 -13 62 -25 54 -9 -5 -10 1 -4 22 4 16 9 53 11 82 4 78 4 78 76 59z
m351 -24 c8 -58 3 -1120 -5 -1129 -5 -4 -11 -4 -15 0 -10 10 -17 998 -8 1093
7 79 20 95 28 36z m79 -365 c4 -566 0 -770 -15 -765 -9 3 -13 142 -15 585 -2
508 0 582 13 582 12 0 15 -56 17 -402z m72 370 c11 -55 8 -1130 -3 -1141 -7
-7 -12 -6 -15 4 -7 23 -16 1156 -9 1163 13 13 21 5 27 -26z m78 -5 c3 -21 6
-287 7 -590 2 -495 0 -553 -13 -553 -12 0 -16 11 -16 48 0 26 -3 238 -7 472
-6 410 1 660 17 660 4 0 10 -17 12 -37z m83 -80 c9 -135 1 -1050 -9 -1060 -3
-3 -9 -3 -13 1 -5 4 -9 271 -11 592 -3 510 -2 584 11 584 12 0 17 -24 22 -117z
m78 -480 c4 -479 2 -583 -9 -583 -7 0 -15 4 -19 9 -8 13 -7 1150 1 1163 3 5
10 6 14 1 4 -4 10 -270 13 -590z m-827 381 c-4 -9 -9 -15 -11 -12 -3 3 -3 13
1 22 4 9 9 15 11 12 3 -3 3 -13 -1 -22z m352 -149 c6 -2 12 -9 12 -15 0 -6
-42 -10 -111 -10 l-112 0 6 -36 c8 -50 50 -111 94 -137 33 -19 34 -22 18 -31
-65 -39 -98 -83 -110 -149 l-7 -37 91 0 c50 0 92 1 94 2 1 1 13 -5 27 -13 23
-13 16 -14 -90 -19 l-115 -5 1 -38 c2 -45 44 -104 92 -127 17 -8 32 -19 31
-25 0 -5 -19 -22 -44 -37 -66 -40 -110 -140 -67 -152 9 -2 148 -8 307 -11 160
-4 292 -9 294 -11 8 -8 -784 -2 -809 6 -25 8 -25 8 5 9 103 5 138 10 147 19
20 20 -11 79 -70 133 -40 37 -53 54 -42 57 29 9 108 100 115 132 10 43 -2 52
-77 55 -109 4 -118 5 -118 15 0 6 38 10 94 10 52 0 98 4 101 10 10 16 -14 86
-38 111 -12 13 -38 36 -57 52 -33 26 -34 28 -16 40 47 31 78 63 97 99 34 66
27 72 -80 78 -60 3 -96 9 -98 17 -3 7 8 13 24 15 38 4 395 -2 411 -7z m-273
-57 c4 -3 0 -19 -8 -35 -43 -81 -159 -130 -243 -103 -76 25 -144 88 -144 133
0 18 11 19 194 15 107 -1 197 -6 201 -10z m270 -73 l0 -70 -29 2 c-37 3 -101
47 -126 88 -33 53 -29 56 68 53 l87 -3 0 -70z m-3457 -124 c2 -12 1 -34 -2
-47 -6 -21 -12 -24 -50 -24 -24 0 -71 -3 -105 -6 -56 -6 -61 -9 -61 -31 0 -45
49 -111 103 -139 33 -18 34 -32 3 -43 -51 -20 -121 -129 -101 -161 3 -6 46
-10 99 -10 58 0 96 -4 104 -12 7 -7 12 -40 12 -78 l0 -67 -137 -6 c-75 -4
-207 -7 -295 -7 l-158 0 0 69 c0 39 4 72 9 75 5 4 44 9 88 12 43 3 84 7 91 9
35 12 -15 119 -73 155 -43 27 -44 35 -4 55 37 20 89 99 89 137 0 35 -19 40
-121 36 l-74 -3 -3 52 -3 52 43 3 c24 2 156 3 293 3 l250 0 3 -24z m3069 8
c45 -17 123 -101 123 -134 0 -9 -374 -5 -389 4 -34 22 32 104 104 129 40 14
127 15 162 1z m393 -76 l0 -64 -87 3 c-81 3 -88 4 -85 23 7 37 45 77 96 101
65 30 76 22 76 -63z m-3250 -53 c0 -27 -55 -87 -101 -111 -86 -43 -210 -15
-272 63 -52 65 -44 68 178 68 187 0 195 -1 195 -20z m-625 0 c11 -18 -37 -81
-84 -111 -52 -33 -91 -38 -92 -11 -3 56 4 118 14 124 18 12 155 9 162 -2z
m3574 -99 c40 -11 36 -30 -16 -80 -57 -55 -111 -73 -188 -62 -76 11 -124 41
-152 94 -28 54 -20 57 164 56 92 -1 179 -4 192 -8z m298 -72 c-3 -39 -7 -73
-10 -76 -13 -12 -82 22 -118 58 -34 34 -50 75 -35 90 2 2 41 3 86 1 l81 -4 -4
-69z m-3340 -16 c40 -19 93 -77 93 -102 0 -15 -11 -19 -67 -24 -86 -9 -281 -9
-310 -1 -29 8 -29 22 2 64 61 83 183 110 282 63z m-628 -13 c70 -35 114 -109
75 -124 -9 -3 -47 -6 -85 -6 l-69 0 0 75 c0 69 2 75 20 75 12 0 38 -9 59 -20z
m3579 -96 c59 -24 134 -108 115 -128 -4 -3 -91 -6 -195 -6 -210 0 -216 2 -181
62 40 72 174 109 261 72z m382 -57 c3 -37 4 -71 2 -76 -4 -11 -153 -2 -165 9
-15 13 22 68 66 98 82 56 91 54 97 -31z m-430 -170 c173 -1 321 -6 328 -10 15
-10 18 -582 3 -592 -6 -3 -172 -2 -370 1 l-361 7 0 297 c0 163 2 299 4 301 3
3 22 3 43 2 21 -1 180 -4 353 -6z m-2847 -49 c6 -59 3 -555 -4 -562 -8 -8
-492 -12 -505 -4 -7 5 -10 99 -10 300 l1 293 125 5 c69 3 184 6 256 8 l132 2
5 -42z m-565 -172 l2 -199 -37 8 c-44 9 -73 9 -126 -1 l-38 -6 3 193 3 194 30
5 c17 3 59 5 95 5 l65 0 3 -199z m0 -305 c2 -61 -1 -87 -10 -92 -22 -14 -175
-11 -180 4 -3 6 -6 46 -7 89 -3 89 -9 84 114 84 l80 -1 3 -84z m3735 -124 c17
-2 18 -21 19 -301 l1 -299 -359 2 c-233 2 -363 6 -371 13 -10 8 -13 79 -13
302 l0 292 353 -4 c193 -1 360 -4 370 -5z m-3176 -19 c4 -7 9 -142 11 -300 l3
-288 -68 0 c-37 -1 -203 -3 -368 -6 -165 -3 -305 -1 -312 3 -8 6 -13 90 -16
301 -2 161 -1 294 1 297 3 3 171 5 373 5 283 0 370 -3 376 -12z m2598 -838 l0
-215 -234 2 c-128 1 -236 4 -238 7 -3 3 21 40 53 83 196 258 235 303 220 256
-10 -32 15 -44 85 -41 72 3 90 19 73 65 -9 26 -14 28 -72 31 -58 3 -72 9 -55
26 4 4 43 5 88 4 l80 -3 0 -215z m590 199 c6 -6 10 -92 10 -217 l0 -207 -260
2 c-143 2 -266 5 -274 8 -11 4 -13 40 -9 208 3 112 7 208 10 213 8 12 510 5
523 -7z m-3159 -11 c53 -40 404 -382 404 -394 0 -6 -14 -14 -31 -18 -17 -3
-283 -6 -590 -6 l-559 0 0 213 c0 118 2 216 4 218 2 2 170 6 373 7 l368 4 31
-24z m2425 -51 c-1 -12 -15 -9 -19 4 -3 6 1 10 8 8 6 -3 11 -8 11 -12z m69 3
c0 -5 -4 -10 -10 -10 -5 0 -10 5 -10 10 0 6 5 10 10 10 6 0 10 -4 10 -10z
m-1362 -306 c74 -57 90 -126 47 -200 -25 -43 -84 -80 -135 -86 l-25 -3 -3 143
c-3 165 3 187 51 178 16 -3 46 -18 65 -32z m294 -39 c6 -64 2 -213 -7 -243 -3
-9 -17 -7 -57 8 -62 23 -113 75 -122 125 -16 83 74 190 154 182 23 -2 25 -7
32 -72z"/>
<path d="M2180 26089 c-19 -4 -165 -8 -324 -8 -225 0 -291 -3 -298 -13 -12
-20 -10 -1515 2 -1523 6 -4 143 -7 304 -8 l294 -1 50 40 c203 161 495 398 525
427 l37 34 -1 494 c-1 272 -4 508 -8 524 l-6 30 -255 0 c-140 0 -262 3 -270 7
-8 3 -31 2 -50 -3z m-40 -284 c0 -223 -1 -235 -20 -245 -12 -7 -108 -9 -267
-8 l-248 3 -3 230 c-1 126 0 235 2 242 4 10 65 13 271 13 l265 0 0 -235z m578
-12 l2 -243 -264 0 c-243 0 -264 1 -268 18 -3 14 -2 467 1 467 1 0 119 0 264
0 l262 0 3 -242z m-580 -508 c-3 -119 -8 -218 -12 -222 -3 -4 -119 -9 -256
-11 l-250 -5 -10 27 c-6 15 -10 115 -10 227 l0 199 271 0 272 0 -5 -215z m582
-14 l0 -229 -107 -89 c-184 -153 -416 -332 -424 -327 -8 5 -11 745 -3 816 4
32 11 48 22 51 10 3 128 5 265 6 l247 1 0 -229z m-588 -471 c-2 -113 -6 -207
-9 -210 -2 -3 -121 -6 -264 -8 l-259 -3 0 206 c0 195 1 206 20 213 10 4 131 7
267 7 l248 0 -3 -205z"/>
<path d="M1562 23611 c-10 -6 -12 -353 -10 -1532 l3 -1524 603 -3 602 -2 1
1127 c1 621 1 1167 1 1215 l0 88 -81 87 c-67 73 -77 89 -61 91 45 7 17 36 -56
56 -28 8 -63 43 -243 238 l-154 167 -296 0 c-164 0 -303 -4 -309 -8z m563 -43
c10 -10 6 -561 -4 -571 -10 -10 -504 -13 -520 -3 -11 7 -17 567 -6 578 8 8
522 4 530 -4z m163 -149 c95 -100 113 -128 67 -107 -19 8 -35 8 -66 -1 -53
-16 -45 -36 14 -37 56 -1 61 -5 53 -39 -8 -32 -56 -37 -56 -6 0 11 -5 23 -11
27 -15 9 -30 -16 -27 -46 3 -21 9 -26 48 -31 60 -9 80 3 80 47 0 22 6 37 15
41 29 11 85 -60 85 -109 0 -17 3 -19 12 -10 7 7 18 12 25 12 21 0 15 -25 -9
-35 -28 -12 -36 -56 -14 -74 22 -18 39 -5 25 20 -15 29 -4 35 27 13 14 -11 47
-31 72 -45 74 -42 67 -49 -50 -50 -105 -1 -387 -1 -400 0 -4 1 -5 45 -2 99 2
53 4 173 4 265 0 93 4 167 8 165 5 -1 50 -46 100 -99z m-159 -502 c12 -34 8
-544 -4 -556 -8 -8 -96 -9 -273 -4 l-262 6 2 286 3 286 95 5 c52 3 171 4 263
2 163 -3 168 -4 176 -25z m591 -262 c0 -156 -4 -286 -9 -289 -9 -6 -521 -9
-526 -4 -4 4 -8 261 -6 440 l1 138 263 2 c144 2 265 2 270 0 4 -2 7 -131 7
-287z m-588 -417 c7 -145 0 -490 -9 -499 -5 -5 -120 -8 -268 -7 l-260 3 -3
278 c-2 202 0 283 9 293 9 11 60 14 269 14 l258 0 4 -82z m576 74 c9 -7 12
-72 10 -293 l-3 -284 -267 -3 -268 -2 0 288 c0 159 3 292 7 295 9 10 505 8
521 -1z m-577 -634 c11 -18 12 -555 0 -562 -10 -6 -521 -9 -527 -3 -2 2 -5
132 -7 290 l-3 286 25 4 c14 2 134 2 265 1 180 -2 241 -6 247 -16z m576 8 c9
-9 12 -277 5 -459 l-4 -117 -262 2 -261 3 -5 265 c-3 146 -2 275 2 287 6 18
16 22 60 25 110 6 457 2 465 -6z m-572 -856 l0 -235 -264 -5 c-171 -3 -265 -2
-266 5 -2 6 -6 109 -9 231 -4 162 -2 224 7 233 8 8 82 11 272 9 l260 -3 0
-235z m585 -4 l0 -244 -267 1 -268 2 -3 243 -2 242 270 0 270 0 0 -244z"/>
<path d="M1556 20271 c-6 -95 2 -2204 9 -2227 2 -8 172 -10 594 -9 326 1 594
4 596 7 3 2 5 526 5 1164 l0 1159 -598 3 -599 2 -7 -99z m582 -107 c2 -93 0
-206 -3 -251 l-7 -83 -264 0 -264 0 2 248 3 247 35 5 c19 3 139 5 265 4 l230
-1 3 -169z m460 168 l122 -2 0 -250 0 -250 -270 0 -270 0 2 248 3 247 90 5
c50 3 115 5 145 4 30 -1 110 -2 178 -2z m-460 -587 c2 -27 1 -159 -3 -293 l-7
-242 -267 2 -266 3 3 280 c2 154 6 283 10 287 8 8 178 13 402 13 l125 0 3 -50z
m500 46 l82 -1 -2 -287 -3 -288 -265 0 -265 0 0 285 0 285 75 6 c41 3 125 4
185 3 61 -1 147 -3 193 -3z m-500 -902 l2 -286 -117 -7 c-126 -7 -397 -1 -413
9 -12 7 -14 534 -2 552 8 13 107 18 372 18 l155 0 3 -286z m455 284 l127 -6 0
-290 0 -290 -258 5 c-142 3 -264 8 -270 12 -13 8 -18 557 -5 569 8 9 231 9
406 0z m-453 -858 l0 -245 -264 0 c-225 0 -265 2 -270 15 -4 11 -9 361 -6 452
0 13 67 17 383 21 l157 2 0 -245z m467 235 l113 0 0 -229 c0 -182 -3 -231 -14
-240 -9 -8 -88 -11 -267 -9 l-254 3 -2 230 c-1 127 0 236 3 244 4 12 31 13
156 8 83 -4 202 -7 265 -7z"/>
<path d="M1633 17873 l-73 -4 0 -472 c0 -260 -1 -780 -3 -1157 l-2 -685 465 3
c418 4 466 6 478 20 8 10 69 130 138 267 l124 250 2 893 3 892 -530 -2 c-291
-1 -563 -4 -602 -5z m1088 -268 c-1 -132 -5 -243 -10 -248 -4 -4 -124 -6 -267
-5 l-259 3 -3 242 -3 243 218 3 c120 1 242 3 272 2 l53 0 -1 -240z m-581 -15
l0 -250 -269 0 c-149 0 -271 3 -273 8 -2 4 -2 116 0 250 l3 242 269 0 270 0 0
-250z m-47 -286 l47 -6 -2 -286 -3 -287 -120 -1 c-66 -1 -187 1 -268 5 l-148
6 1 279 c0 153 2 282 4 285 6 9 429 13 489 5z m625 -286 l2 -288 -107 -1
c-385 -4 -433 -3 -433 6 -3 94 2 560 6 567 3 4 123 7 267 6 l262 -3 3 -287z
m-590 -340 c13 -13 17 -316 6 -476 l-7 -92 -263 0 -264 0 0 283 c0 156 3 287
7 290 12 13 508 8 521 -5z m592 -265 c0 -153 -4 -284 -8 -291 -7 -9 -67 -12
-268 -10 l-259 3 -3 275 c-1 151 0 280 3 287 3 10 65 13 270 13 l265 0 0 -277z
m-21 -349 c4 -4 -215 -440 -232 -461 -7 -9 -49 -13 -148 -13 l-139 0 0 240 0
239 118 3 c130 3 395 -2 401 -8z m-569 -44 c3 -25 4 -132 2 -237 l-3 -193
-265 0 c-245 0 -264 1 -265 18 -1 34 -1 348 0 405 l1 57 263 -2 262 -3 5 -45z"/>
<path d="M1743 12882 l-193 -2 0 -483 c0 -265 -1 -912 -4 -1437 -2 -525 -2
-977 1 -1004 l6 -48 606 5 c333 4 606 6 606 7 0 0 -1 549 -3 1220 l-2 1220
-134 263 -134 262 -279 0 c-153 0 -365 -1 -470 -3z m395 -87 c2 -27 1 -137 -3
-242 l-7 -193 -269 0 -269 0 0 239 c1 177 4 241 13 245 7 2 129 4 272 3 l260
-2 3 -50z m336 24 c33 -39 33 -56 -1 -56 -17 0 -33 -9 -41 -22 -17 -25 -32
-27 -32 -5 0 9 -6 14 -12 12 -7 -3 -13 -17 -13 -33 0 -23 6 -30 30 -37 39 -10
55 -4 49 20 -7 24 17 44 36 32 12 -8 13 -13 3 -29 -15 -24 -6 -33 18 -18 12 7
22 8 28 2 23 -24 162 -306 155 -316 -5 -9 -72 -10 -258 -5 -137 4 -251 8 -252
9 -3 2 -7 457 -5 470 0 4 61 7 135 7 l134 0 26 -31z m234 -504 c4 -4 8 -135
10 -291 l3 -284 -138 -1 c-212 -2 -397 2 -403 7 -8 9 -8 558 1 569 8 11 516
12 527 0z m-576 -289 l-2 -290 -261 -4 c-213 -3 -263 -2 -270 9 -10 16 -12
562 -2 572 4 4 126 6 272 5 l266 -3 -3 -289z m-8 -335 c6 -9 9 -571 4 -577 -5
-4 -527 -8 -532 -3 -7 6 -11 558 -4 564 3 3 120 9 259 14 140 4 257 9 261 9 4
1 9 -2 12 -7z m589 -5 c3 -7 5 -139 4 -292 l-2 -279 -267 -3 -268 -3 -2 28
c-3 63 4 548 8 555 3 5 121 8 264 8 211 0 259 -3 263 -14z m-585 -913 l2 -293
-270 0 -270 0 0 295 0 295 223 2 c122 2 242 1 267 -2 l45 -5 3 -292z m582 291
c3 -3 5 -135 5 -292 l0 -287 -255 -2 c-140 -1 -261 1 -268 6 -12 7 -15 105
-13 463 l1 117 58 3 c86 5 465 -2 472 -8z m-579 -760 c0 -74 1 -161 1 -194 0
-33 -1 -83 -1 -110 l-1 -50 -267 2 -268 3 -5 205 c-3 113 -3 221 0 240 l5 35
225 5 c124 3 244 3 267 1 l43 -3 1 -134z m569 136 c9 -6 14 -70 18 -249 l5
-241 -266 0 -267 0 -5 23 c-8 37 -14 318 -8 394 l6 72 36 4 c66 7 468 5 481
-3z"/>
<path d="M2230 9733 c-30 -2 -192 -4 -359 -5 l-305 -3 -9 -30 c-5 -17 -9 -653
-10 -1510 l-2 -1480 599 -3 c330 -1 604 2 608 6 11 11 11 3003 1 3013 -8 8
-408 17 -523 12z m-105 -41 c13 -2 10 -471 -2 -483 -5 -5 -124 -8 -269 -7
l-259 3 -3 242 -2 242 67 3 c72 3 451 3 468 0z m583 -5 c9 -6 12 -67 12 -248
l0 -239 -264 0 c-177 0 -267 4 -271 11 -7 10 -9 145 -6 382 l1 109 258 -4
c141 -1 263 -7 270 -11z m-578 -821 c0 -252 -2 -295 -15 -300 -8 -3 -131 -6
-273 -6 l-257 -1 2 248 c1 136 2 272 2 301 l1 52 270 0 270 0 0 -294z m582
257 c2 -21 1 -155 -2 -298 l-5 -260 -254 -3 c-140 -1 -259 2 -263 6 -10 10
-12 568 -3 583 4 5 118 9 265 9 l259 0 3 -37z m-219 -602 l227 -1 0 -284 c0
-156 -3 -291 -6 -299 -8 -23 -505 -25 -527 -2 -13 12 -15 58 -12 295 2 154 6
284 10 289 3 6 22 8 43 6 20 -2 139 -4 265 -4z m-365 -303 l2 -298 -264 0
c-160 0 -267 4 -271 10 -4 7 -10 548 -6 583 1 4 121 6 269 5 l267 -3 3 -297z
m-8 -344 c9 -9 12 -548 3 -572 l-9 -23 -258 0 c-204 -1 -261 2 -268 13 -9 12
-3 571 6 586 5 8 518 4 526 -4z m588 1 c9 -3 12 -72 12 -300 l0 -295 -269 0
-269 0 -3 45 c-2 24 -4 158 -4 297 l0 253 55 5 c64 6 459 2 478 -5z m7 -880
l0 -250 -266 -3 -267 -2 -6 22 c-3 13 -6 125 -6 250 l0 228 258 3 c141 1 264
2 272 2 13 0 15 -35 15 -250z m-587 -4 c1 -142 -2 -247 -7 -250 -13 -8 -528
-7 -536 1 -16 16 0 464 18 486 7 9 69 12 266 10 l256 -3 3 -244z"/>
<path d="M1535 6498 c-3 -7 -4 -717 -3 -1578 l3 -1565 298 -2 c259 -2 303 0
330 14 18 9 91 57 162 108 72 50 191 133 267 184 75 51 143 100 152 110 15 16
16 139 16 1364 0 740 -3 1353 -6 1361 -5 14 -71 16 -610 16 -475 0 -606 -3
-609 -12z m588 -55 c3 -16 5 -127 4 -248 l-2 -220 -272 -3 -273 -2 -1 112 c-2
161 -2 275 -1 336 l2 52 269 0 269 0 5 -27z m592 -223 l0 -245 -272 -3 -273
-2 0 243 c0 134 3 247 7 250 4 4 126 6 272 5 l266 -3 0 -245z m-596 -303 c11
-14 7 -575 -5 -586 -3 -4 -126 -6 -272 -6 l-267 0 -3 290 c-1 159 0 295 3 302
7 19 528 19 544 0z m594 -14 c3 -16 5 -151 4 -301 l-2 -273 -260 -2 c-143 -1
-266 2 -272 6 -10 6 -13 66 -13 241 0 128 3 261 6 295 l7 61 262 0 263 0 5
-27z m-599 -624 c11 -10 8 -581 -2 -591 -12 -12 -520 -14 -533 -1 -6 6 -8 125
-7 299 l3 289 75 5 c105 7 457 6 464 -1z m590 -4 c14 -14 16 -53 16 -299 l0
-283 -31 -7 c-53 -10 -507 -7 -514 4 -12 19 -6 583 7 591 6 4 122 8 258 8 216
2 250 0 264 -14z m-582 -863 c2 -126 1 -262 -2 -303 l-5 -74 -270 0 -270 0 -3
290 c-2 264 -1 291 15 303 12 9 84 12 275 12 l257 0 3 -228z m593 -66 l0 -290
-25 -6 c-14 -4 -129 -10 -256 -14 -207 -7 -233 -6 -248 9 -14 14 -16 50 -16
299 0 155 3 286 7 289 4 4 126 6 272 5 l266 -3 0 -289z m-599 -357 c9 -16 9
-573 -1 -588 -4 -7 -97 -11 -276 -11 l-269 0 0 298 c0 164 2 301 4 303 3 2
124 6 269 7 211 3 266 1 273 -9z m609 -1 c2 -7 1 -53 -3 -103 l-7 -89 -100
-70 c-55 -38 -176 -123 -268 -188 -92 -65 -170 -118 -173 -118 -2 0 -4 128 -4
284 0 263 1 285 18 289 9 3 133 5 275 6 198 1 259 -2 262 -11z"/>
<path d="M1530 2040 c-10 -19 -12 -956 -2 -1152 l4 -88 602 0 c361 0 607 4
616 10 13 8 15 63 18 375 1 202 -1 380 -6 398 -8 33 -129 130 -459 368 l-151
109 -306 0 c-293 0 -306 -1 -316 -20z m676 -72 c49 -33 152 -109 229 -168 77
-59 159 -119 183 -135 23 -15 42 -31 42 -36 0 -4 -233 -10 -517 -12 -285 -3
-529 -6 -543 -8 l-25 -4 -3 207 -2 208 267 3 c148 1 271 3 274 5 3 1 46 -26
95 -60z m-174 -393 l88 -7 0 -364 0 -364 -275 0 -275 0 0 353 c0 193 4 357 8
364 4 6 28 13 52 15 110 8 321 9 402 3z m672 -1 c14 -5 16 -47 16 -364 l0
-358 -125 -4 c-69 -2 -192 -2 -275 0 l-150 3 -2 352 c-2 194 1 358 6 365 6 9
70 12 261 12 140 0 260 -3 269 -6z"/>
</g>
</svg>
