<?xml version="1.0" standalone="no"?>
<!DOCTYPE svg PUBLIC "-//W3C//DTD SVG 20010904//EN"
 "http://www.w3.org/TR/2001/REC-SVG-20010904/DTD/svg10.dtd">
<svg version="1.0" xmlns="http://www.w3.org/2000/svg"
 width="2726.000000pt" height="966.000000pt" viewBox="0 0 2726.000000 966.000000"
 preserveAspectRatio="xMidYMid meet">

<g transform="translate(0.000000,966.000000) scale(0.100000,-0.100000)"
fill="#000000" stroke="none">
<path d="M455 6200 c-5 -8 -7 -307 -4 -664 7 -1110 6 -1205 -11 -1216 -8 -5
-43 -10 -77 -10 -34 0 -65 -5 -68 -10 -12 -20 25 -116 66 -169 l41 -53 -30
-32 c-44 -46 -74 -111 -70 -154 l3 -37 65 -3 c35 -2 71 -8 79 -15 12 -10 13
-91 8 -577 -4 -311 -10 -721 -14 -913 l-6 -347 929 2 929 3 5 -235 5 -235 641
-3 c577 -2 643 -1 655 14 9 11 14 65 16 192 2 98 6 196 9 219 l5 41 72 6 c40
3 961 8 2047 11 2326 6 4237 14 4900 20 261 2 1089 5 1840 6 l1365 1 -2 -230
-2 -231 142 -3 c78 -2 363 -1 632 2 l490 5 5 222 c3 122 9 225 13 230 5 4
1773 8 3930 9 3608 1 4758 -3 4770 -16 4 -5 16 -283 17 -397 l0 -53 635 0 635
0 0 224 0 223 65 7 c36 4 242 6 458 6 216 0 593 -1 838 0 l446 0 -1 583 -1
582 63 3 62 3 0 32 c-1 44 -34 115 -76 158 l-34 35 31 30 c42 39 70 97 72 147
l2 42 -60 3 c-33 2 -63 9 -67 15 -9 14 -11 378 -2 401 5 12 21 16 65 16 46 0
61 4 66 17 11 29 -17 106 -58 161 l-40 53 39 47 c28 33 43 64 53 105 15 70 10
77 -68 77 l-51 0 -4 143 c-3 134 -5 146 -28 179 -14 19 -42 61 -64 91 l-39 57
52 62 c28 35 51 70 51 79 0 39 -76 79 -151 79 l-37 0 -4 78 c-3 77 -29 152
-55 160 -6 2 -33 -24 -60 -57 -26 -33 -53 -60 -59 -60 -6 -1 -18 7 -25 18 -39
53 -614 767 -623 774 -6 4 -765 4 -1686 1 -1998 -9 -8823 -8 -10090 0 -492 3
-1646 8 -2565 11 -918 3 -1978 7 -2355 10 -377 2 -1137 7 -1690 10 -553 4
-1122 8 -1265 11 -143 2 -1498 7 -3011 11 -2302 5 -2752 4 -2759 -7z m2357
-124 c12 -17 9 -154 -2 -161 -18 -11 -81 37 -111 84 -32 50 -37 88 -13 93 33
6 119 -4 126 -16z m-1184 -360 c1 -251 -1 -373 -8 -380 -7 -7 -114 -12 -300
-14 l-290 -3 0 78 c-1 43 -3 203 -6 356 -4 153 -3 289 0 302 6 23 10 24 94 27
48 2 182 3 297 3 l210 0 3 -369z m214 357 c2 -10 4 -54 4 -98 l-1 -80 -84 -3
c-61 -2 -87 1 -92 10 -14 21 -11 176 3 180 7 3 46 5 89 7 66 2 77 -1 81 -16z
m414 3 c3 -7 6 -50 7 -97 l2 -84 -199 -3 -199 -2 8 37 c9 44 9 73 -1 126 l-6
37 192 -1 c138 -1 193 -5 196 -13z m188 5 c4 -5 9 -44 12 -88 3 -43 7 -84 9
-90 12 -36 119 14 155 72 27 43 35 44 55 4 20 -37 99 -89 137 -89 35 0 40 19
36 121 l-3 74 51 3 52 3 4 -48 c2 -26 4 -158 3 -293 l0 -245 -24 -3 c-12 -2
-34 -1 -47 2 -21 6 -24 12 -24 50 0 24 -3 71 -6 105 -6 56 -9 61 -31 61 -45 0
-111 -49 -139 -102 -18 -34 -32 -35 -43 -4 -20 51 -129 121 -161 101 -6 -3
-10 -46 -10 -99 0 -58 -4 -96 -12 -104 -7 -7 -40 -12 -78 -12 l-67 0 -6 137
c-4 75 -7 207 -7 295 l0 158 69 0 c39 0 72 -4 75 -9z m186 -11 c0 -53 -78
-150 -120 -150 -24 0 -30 19 -30 101 l0 69 75 0 c69 0 75 -2 75 -20z m959 5
c14 -14 19 -731 5 -745 -7 -7 -112 -9 -303 -8 l-293 3 -5 374 c-5 310 -3 375
8 382 19 13 575 7 588 -6z m646 -7 c6 -5 10 -144 10 -376 l0 -367 -301 -3
-302 -2 -4 367 c-2 203 -2 373 0 380 3 9 39 13 115 15 184 5 471 -3 482 -14z
m-3247 -363 l4 -370 -24 -31 c-40 -53 -382 -404 -394 -404 -6 0 -14 14 -18 31
-3 17 -6 283 -6 590 l0 559 217 -2 216 -3 5 -370z m3904 328 c2 -27 4 -196 3
-378 l0 -330 -293 0 c-184 0 -297 4 -302 10 -14 17 -20 733 -7 739 7 2 143 5
303 5 l292 1 4 -47z m645 33 c2 -2 5 -169 6 -372 l2 -369 -302 -3 c-167 -1
-303 -1 -303 0 -5 55 -11 731 -6 743 6 17 25 18 303 12 163 -4 298 -8 300 -11z
m651 -89 l3 -97 -103 -2 c-57 0 -146 -2 -198 -2 l-95 -1 4 40 c1 22 7 47 11
55 5 9 3 23 -6 35 -8 10 -14 27 -14 37 0 10 -4 18 -9 18 -16 0 -23 -39 -19
-113 2 -53 0 -72 -9 -71 -7 1 -49 2 -93 3 l-81 1 3 93 3 92 65 5 c36 3 171 5
300 4 l235 0 3 -97z m646 71 c3 -13 7 -179 10 -370 6 -335 5 -348 -13 -358
-29 -15 -578 -14 -587 2 -4 6 -9 127 -11 267 -2 141 -5 307 -7 369 l-3 112
303 0 304 0 4 -22z m647 6 c4 -2 7 -170 8 -374 l2 -370 -173 -1 c-203 -1 -432
2 -435 5 -2 1 -5 632 -4 713 1 21 7 33 19 36 20 6 574 -3 583 -9z m653 -365
c5 -204 5 -374 1 -377 -4 -4 -141 -8 -306 -10 l-299 -3 0 133 c0 73 -3 235 -7
359 -4 163 -2 232 6 247 12 22 14 22 305 22 l293 -1 7 -370z m634 356 c1 -1 3
-168 5 -371 l2 -369 -292 0 c-160 0 -295 4 -300 8 -4 5 -10 172 -11 372 l-4
363 24 5 c22 4 570 -3 576 -8z m642 -7 c0 -7 3 -176 6 -375 l5 -363 -88 -1
c-146 -2 -508 2 -511 6 -6 6 -15 713 -9 729 6 14 39 16 302 16 229 0 295 -3
295 -12z m635 0 c8 -26 11 -717 3 -731 -7 -13 -48 -15 -293 -13 -157 2 -287 5
-290 8 -3 3 -8 165 -12 361 -5 283 -4 359 7 372 11 13 53 15 297 15 218 0 285
-3 288 -12z m632 -3 c9 -3 12 -90 10 -372 l-2 -368 -288 1 c-158 1 -291 5
-295 9 -4 3 -8 170 -10 371 l-4 364 244 2 c231 3 318 1 345 -7z m631 0 c10 -4
12 -83 10 -372 l-3 -368 -291 -3 -291 -2 -5 97 c-7 127 -10 641 -4 651 4 7
561 5 584 -3z m637 -110 c3 -60 5 -227 3 -370 l-3 -260 -280 -2 c-154 -2 -285
0 -292 5 -12 8 -27 623 -16 700 l6 43 288 -3 287 -2 7 -111z m627 54 c3 -30 6
-197 7 -371 l1 -318 -295 0 -295 0 0 23 c0 12 -3 173 -7 358 -3 185 -3 344 0
353 6 16 33 17 294 13 l288 -3 7 -55z m621 54 c3 -5 6 -174 8 -378 l4 -370
-290 3 c-159 2 -291 4 -292 5 -1 1 -5 168 -9 369 l-7 368 279 3 c153 1 284 3
291 5 6 1 14 -1 16 -5z m127 -91 c6 -98 14 -114 54 -104 33 8 86 51 108 88 11
19 23 34 26 34 4 0 14 -13 24 -29 22 -41 95 -91 130 -91 27 0 28 2 29 53 2 50
3 75 7 125 2 24 23 27 95 16 l37 -7 0 -284 0 -284 -62 3 -63 3 -3 97 c-3 119
-12 130 -74 96 -24 -13 -58 -44 -77 -70 l-35 -47 -32 48 c-38 56 -106 96 -136
80 -16 -8 -18 -23 -18 -109 0 -99 0 -100 -24 -100 -14 0 -36 4 -50 10 l-26 10
0 260 c0 166 4 269 11 281 8 15 19 19 42 17 l32 -3 5 -93z m167 62 c-3 -20
-18 -52 -33 -71 -29 -39 -85 -76 -96 -65 -5 6 -12 113 -9 160 1 8 22 12 72 12
l72 0 -6 -36z m181 -48 c4 -98 -5 -110 -55 -69 -68 54 -105 132 -70 147 6 2
37 4 67 3 l55 -2 3 -79z m903 67 c6 -6 9 -39 7 -73 -3 -61 -4 -64 -32 -71 -42
-12 -103 -75 -123 -128 -9 -26 -21 -52 -26 -58 -7 -10 -74 -13 -273 -13 l-264
0 0 174 c0 130 3 175 12 178 27 9 690 0 699 -9z m681 -85 l3 -103 40 1 c35 2
46 9 94 60 49 53 55 57 65 40 34 -59 75 -90 144 -111 22 -6 22 -5 22 84 0 117
2 121 56 121 l44 0 1 -122 c0 -68 3 -196 5 -285 l4 -163 -45 0 -45 0 -2 83
c-1 45 -2 91 -2 102 -1 11 -9 21 -19 23 -33 6 -108 -39 -140 -85 -31 -43 -47
-54 -47 -30 0 23 -58 83 -99 101 -65 30 -71 22 -71 -94 l0 -100 -65 0 -65 0 0
278 c0 203 3 281 12 290 7 7 33 12 60 12 l47 0 3 -102z m8738 5 c3 -51 10 -97
16 -103 19 -19 90 18 134 69 l39 46 53 -52 c29 -29 66 -57 82 -63 47 -17 56
-1 56 100 0 97 2 100 66 100 l34 0 0 -290 0 -290 -45 0 -45 0 0 81 c0 60 -3
80 -12 76 -10 -3 -13 -48 -13 -183 l0 -179 -23 -3 c-32 -5 -106 71 -120 121
-12 44 -5 141 13 177 22 42 72 83 111 89 43 7 51 25 12 29 -37 4 -82 -21 -114
-65 -16 -21 -31 -42 -36 -47 -4 -5 -26 11 -49 38 -65 74 -133 99 -144 54 -3
-13 -6 -59 -7 -103 l-3 -80 -65 0 -65 0 0 270 c0 149 3 278 7 288 6 15 17 18
60 15 l53 -3 5 -92z m173 78 c24 -24 -80 -151 -123 -151 -18 0 -20 7 -20 79 0
67 3 80 18 85 24 7 114 -2 125 -13z m182 -66 c0 -76 -1 -80 -23 -83 -47 -7
-140 120 -117 158 4 7 34 10 73 8 l67 -3 0 -80z m-9240 38 c-1 -21 -3 -53 -4
-70 -1 -27 -7 -36 -40 -53 -60 -30 -110 -87 -117 -132 -4 -22 -14 -43 -25 -48
-10 -6 -85 -10 -167 -10 l-149 0 -1 175 -2 175 255 0 254 0 -4 -37z m313 12
c4 -30 -56 -114 -94 -133 -19 -8 -36 -14 -38 -11 -4 4 -9 99 -7 147 1 22 4 23
69 20 58 -3 67 -6 70 -23z m167 12 c3 -6 6 -43 8 -82 2 -58 -1 -70 -15 -73
-35 -7 -127 104 -128 156 0 17 129 17 135 -1z m743 -3 c10 -3 12 -81 10 -366
l-3 -363 -287 -3 -288 -2 -1 132 c-1 244 -1 392 0 500 l1 108 218 2 c211 3
324 0 350 -8z m6193 6 l49 0 -2 -367 -3 -368 -293 -3 -292 -2 2 367 3 368 215
6 c118 3 228 4 244 2 16 -2 50 -3 77 -3z m674 -2 c2 -2 5 -168 6 -368 l1 -365
-283 -2 c-194 -2 -287 1 -296 8 -10 9 -13 84 -13 369 0 196 2 359 4 361 5 5
576 2 581 -3z m553 5 l82 -6 -2 -366 -3 -366 -225 -1 c-124 -1 -255 1 -292 4
l-68 4 0 359 c0 330 1 359 18 368 19 12 359 15 490 4z m1326 1 c13 -5 15 -51
16 -357 0 -209 -4 -358 -10 -367 -8 -13 -50 -15 -277 -15 -147 1 -276 4 -285
8 -17 6 -18 33 -18 372 l0 365 279 0 c154 0 286 -3 295 -6z m634 -358 c1 -209
-2 -364 -7 -369 -9 -9 -547 -11 -562 -1 -15 9 -11 708 3 722 9 9 82 12 288 10
l275 -3 3 -359z m157 312 c52 -54 175 -211 175 -224 0 -4 -6 -12 -14 -18 -8
-6 -16 -26 -18 -45 -3 -30 0 -36 22 -41 27 -6 41 -40 17 -40 -8 0 -27 10 -42
21 -21 17 -26 28 -21 49 3 19 -1 33 -13 44 -36 33 -83 12 -67 -30 5 -13 9 -14
21 -4 9 7 19 9 23 5 4 -4 1 -10 -5 -12 -18 -6 -16 -28 2 -43 11 -9 13 -16 6
-23 -7 -7 -17 -5 -30 7 -14 13 -21 14 -27 5 -4 -8 3 -21 20 -36 32 -27 39 -28
61 -6 16 15 19 15 48 -2 30 -18 30 -18 54 9 30 35 29 42 -7 76 -31 29 -26 49
9 31 10 -6 71 -73 135 -150 l116 -139 0 -65 0 -65 -280 3 c-154 2 -284 7 -290
10 -7 4 -9 56 -7 151 3 131 6 146 25 164 11 11 23 28 27 40 11 33 21 23 31
-32 11 -63 34 -77 34 -21 0 22 5 44 11 50 8 8 8 17 0 31 -6 11 -11 30 -11 42
0 20 -4 22 -34 16 -18 -4 -45 -2 -59 3 l-25 10 4 131 c2 73 6 136 10 141 13
22 51 6 99 -43z m-9365 -53 l0 -95 -60 0 -60 0 0 49 c0 26 -3 69 -6 95 l-7 46
67 0 66 0 0 -95z m458 -2 l3 -93 -216 0 -215 0 0 33 c0 18 7 42 15 54 13 18
13 22 0 33 -15 13 -20 51 -8 64 4 3 99 5 212 4 l206 -3 3 -92z m625 90 c2 -5
2 -171 -1 -370 l-4 -363 -294 0 -294 0 0 370 0 370 294 0 c162 0 297 -3 299
-7z m618 -363 c-2 -201 -6 -367 -8 -370 -4 -5 -577 -2 -578 3 0 1 1 167 3 370
l3 367 292 -2 292 -3 -4 -365z m620 112 c1 -141 2 -308 3 -369 1 -67 -3 -114
-9 -116 -24 -8 -558 2 -567 11 -10 10 -12 707 -2 723 3 5 126 9 290 8 l284 0
1 -257z m615 244 c3 -8 6 -173 7 -368 l2 -353 -290 0 -290 0 -5 360 c-3 198
-4 363 -2 368 2 4 131 7 288 7 237 0 286 -2 290 -14z m625 12 c0 -2 3 -168 6
-370 l6 -368 -274 0 c-151 0 -284 3 -297 6 l-22 6 0 351 c1 232 5 356 12 364
8 10 75 13 289 13 154 0 279 -1 280 -2z m629 -356 c0 -265 -3 -361 -12 -370
-16 -16 -554 -17 -564 -1 -7 12 -12 601 -6 682 l4 47 289 0 289 0 0 -358z
m628 -9 l-3 -368 -295 -3 -295 -2 3 357 c2 197 5 364 7 371 3 9 71 12 295 12
l290 0 -2 -367z m619 355 c4 -7 8 -174 9 -371 l2 -357 -296 2 -297 3 -1 235
c0 129 2 295 4 368 l4 132 283 0 c216 0 286 -3 292 -12z m-7363 -228 c4 -44 5
-84 1 -90 -8 -13 -132 -13 -140 0 -6 10 25 85 47 110 17 21 69 60 78 60 4 0
11 -36 14 -80z m526 -10 l0 -90 -70 0 c-64 0 -70 2 -70 20 0 31 25 82 51 107
20 18 77 53 87 53 1 0 2 -40 2 -90z m-12837 73 c3 -4 8 -121 12 -259 l7 -252
-43 -4 c-60 -7 -556 -4 -563 3 -8 8 -12 492 -4 505 8 12 584 19 591 7z m3922
-21 c2 -7 7 -119 11 -250 6 -213 5 -239 -10 -251 -14 -11 -68 -13 -303 -7
-157 3 -289 9 -292 12 -3 3 -7 117 -10 254 l-3 249 33 4 c19 2 154 3 301 3
207 -1 269 -4 273 -14z m10773 -284 l-3 -253 -286 -3 -287 -2 -4 247 c-3 137
-3 251 -1 255 2 4 134 7 293 8 l290 0 -2 -252z m8822 148 c0 -16 -18 -31 -27
-22 -8 8 5 36 17 36 5 0 10 -6 10 -14z m-23220 -21 c19 -14 43 -39 54 -56 26
-42 38 -132 24 -188 -13 -51 -83 -131 -115 -131 -18 0 -21 8 -26 68 -9 85 -9
280 -1 310 8 28 22 28 64 -3z m268 -178 c2 -191 2 -197 -17 -197 -28 0 -88 55
-112 101 -25 50 -25 140 0 195 20 45 87 106 111 102 13 -3 15 -35 18 -201z
m12275 26 c4 -76 3 -141 -1 -145 -5 -5 -285 -7 -623 -6 l-614 3 -3 142 -3 142
68 3 c38 2 316 2 619 0 l551 -2 6 -137z m-1705 123 c79 -41 122 -148 100 -249
-12 -57 -83 -141 -115 -135 -16 3 -19 20 -27 185 -8 168 -6 213 9 213 3 0 18
-6 33 -14z m276 -18 c4 -27 9 -244 6 -345 -1 -49 -73 -10 -115 61 -55 94 -42
193 36 269 27 26 53 47 58 47 5 0 11 -15 15 -32z m10430 -13 c53 -53 69 -98
64 -176 -6 -78 -28 -123 -78 -157 -63 -42 -65 -38 -67 168 -1 102 0 190 2 197
6 18 44 3 79 -32z m-8764 19 c62 -37 100 -136 86 -228 -11 -70 -68 -140 -121
-148 -19 -3 -20 3 -23 182 -1 101 0 190 2 197 7 17 22 16 56 -3z m268 -179 c1
-109 -2 -193 -7 -198 -16 -16 -90 44 -117 95 -39 76 -29 182 24 242 23 25 74
57 87 53 6 -2 11 -78 13 -192z m-13143 3 c3 -13 6 -59 7 -103 l3 -80 30 -3
c40 -4 91 31 129 88 27 39 31 42 40 25 45 -78 124 -127 167 -105 20 11 21 18
17 106 l-4 95 51 -3 50 -3 3 -82 c2 -48 8 -85 15 -91 7 -6 761 -12 2007 -16
1097 -4 2114 -9 2260 -11 664 -12 5985 -23 5995 -13 2 2 5 41 8 88 l4 85 34 6
c44 10 49 5 49 -45 0 -24 3 -71 6 -105 8 -68 16 -73 79 -47 29 12 80 68 99
109 4 9 8 8 12 -2 12 -26 77 -92 105 -107 16 -8 39 -14 54 -14 l25 0 0 111 0
110 58 -4 57 -4 5 -44 c5 -43 5 -44 52 -51 25 -5 315 -7 645 -6 l598 3 3 48 3
47 59 0 58 0 7 -87 c10 -145 13 -150 78 -117 42 22 76 52 94 87 l14 29 57 -61
c59 -62 101 -82 127 -61 11 10 15 36 15 111 l0 99 28 0 c44 0 52 -16 52 -101
l0 -77 78 -7 c63 -7 7930 -8 8027 -2 l30 2 9 93 9 92 53 0 c29 0 56 -4 59 -10
3 -5 8 -43 11 -82 8 -111 10 -118 42 -118 34 0 77 28 120 77 l32 38 33 -38
c43 -51 85 -77 124 -77 l32 0 3 103 3 102 35 0 35 0 3 -86 3 -87 31 -6 c17 -3
448 -6 959 -6 l929 0 0 49 c0 28 4 52 9 55 5 3 21 -12 35 -33 l27 -39 -35 -47
c-20 -25 -36 -53 -36 -60 0 -8 17 -27 37 -42 27 -21 51 -29 97 -33 l60 -5 -3
-58 c-3 -60 11 -117 38 -154 22 -30 32 -29 71 12 19 19 39 35 45 35 11 0 71
-76 93 -116 12 -23 19 -225 8 -243 -4 -6 -33 -11 -64 -11 -77 0 -87 -8 -78
-60 8 -50 24 -83 65 -130 34 -38 38 -55 17 -63 -46 -18 -111 -167 -83 -193 6
-7 41 -15 77 -17 36 -3 66 -6 68 -6 1 -1 1 -94 0 -208 l-3 -208 -25 -2 c-14 0
-46 -1 -72 -2 l-48 -1 0 -35 c0 -50 22 -97 69 -148 l40 -44 -39 -38 c-44 -43
-73 -107 -68 -151 3 -28 5 -29 74 -38 l71 -8 7 -67 c3 -36 6 -94 6 -128 l0
-63 -37 0 c-21 0 -2377 0 -5236 0 l-5197 0 -268 135 -267 135 -645 6 c-1030
11 -2040 6 -2070 -10 -14 -7 -135 -69 -270 -138 l-245 -126 -3760 -8 c-2068
-4 -4673 -7 -5789 -8 l-2028 -1 -97 77 c-53 42 -159 125 -236 185 l-140 109
-3 270 -2 271 67 9 c64 8 68 11 71 36 4 37 -28 107 -73 157 l-38 42 26 27 c29
30 87 147 87 175 0 21 -9 25 -82 35 l-57 7 -4 233 -4 232 234 245 235 245 596
1 c328 1 622 4 652 7 l55 7 -3 88 -2 87 75 0 c69 0 75 -2 80 -22z m24193 -41
c19 -53 15 -145 -9 -194 -27 -56 -80 -93 -134 -93 -48 0 -110 34 -98 53 16 26
217 267 223 267 3 0 11 -15 18 -33z m173 -214 c16 -10 29 -22 29 -28 0 -12
-167 -221 -198 -249 -41 -36 -62 0 -62 107 0 129 133 227 231 170z m191 -703
c-16 -125 -146 -195 -235 -127 -35 27 -77 101 -77 137 0 20 5 20 158 18 l157
-3 -3 -25z m-88 -204 c26 -11 41 -29 66 -80 20 -40 29 -70 24 -76 -11 -10
-104 -15 -226 -12 l-88 2 0 28 c0 38 39 102 79 129 39 27 95 30 145 9z
m-26302 -7 c16 -9 19 -17 14 -42 -13 -67 -92 -137 -155 -137 -40 0 -105 35
-127 68 -21 32 -45 102 -38 113 8 13 281 11 306 -2z m-87 -228 c23 -10 53 -32
68 -50 30 -36 45 -97 29 -113 -12 -12 -291 -16 -310 -4 -20 12 23 107 64 143
52 46 89 52 149 24z m26473 -444 c7 -33 -7 -63 -49 -110 -37 -43 -45 -47 -86
-47 -87 0 -156 59 -170 144 l-6 37 154 -3 c140 -3 154 -5 157 -21z m-92 -206
c59 -27 119 -132 91 -160 -13 -13 -275 -15 -296 -2 -22 14 -5 73 36 120 55 65
96 75 169 42z m-26267 -248 c255 -194 301 -234 254 -219 -32 10 -44 -15 -41
-85 3 -72 19 -90 65 -73 26 9 28 14 31 72 2 44 7 62 15 59 8 -2 12 -31 12 -88
l0 -84 -215 0 -215 0 -3 85 c-4 99 8 390 15 390 3 0 40 -26 82 -57z m14425 37
c11 -12 17 -580 6 -600 -9 -18 -21 -20 -100 -20 l-90 0 0 83 c0 105 -6 114
-58 99 -38 -12 -112 -79 -112 -102 0 -23 -28 -6 -72 44 -47 53 -99 79 -119 59
-5 -5 -12 -48 -15 -96 l-7 -88 -31 3 -31 3 0 85 0 85 -33 3 c-43 4 -90 -26
-122 -77 -14 -22 -27 -40 -30 -40 -3 0 -19 19 -35 42 -57 78 -139 113 -150 65
-3 -13 -6 -54 -7 -93 l-3 -70 -98 -3 -97 -3 4 313 c2 172 4 314 5 316 2 5
1190 -3 1195 -8z m-1242 -170 c0 -88 1 -166 2 -172 1 -10 -74 -13 -341 -14
l-343 -2 0 174 0 174 340 0 340 0 2 -160z m1936 141 l30 -6 3 -495 4 -495
-340 1 -340 0 -2 490 c-2 269 -1 494 1 500 5 13 588 18 644 5z m-2658 -500 l0
-489 -82 -7 c-46 -3 -156 -5 -246 -3 l-163 3 1 365 c0 274 4 368 13 377 13 13
457 242 470 243 4 0 7 -220 7 -489z m2959 382 c113 -59 218 -113 234 -121 l27
-13 0 -364 c0 -200 -3 -366 -7 -368 -5 -3 -115 -8 -245 -12 l-238 -8 0 490 c0
444 2 503 18 503 3 0 98 -48 211 -107z m8996 -303 l0 -165 -130 0 c-71 0 -164
2 -205 5 l-75 5 -5 85 c-5 83 -6 85 -32 88 -39 5 -85 -23 -121 -74 -17 -24
-33 -44 -36 -44 -3 0 -16 16 -28 34 -31 48 -83 85 -124 88 l-34 3 -3 -90 c-2
-49 -6 -92 -8 -94 -12 -12 -19 19 -24 92 -5 80 -6 82 -32 85 -50 6 -119 -49
-142 -113 -8 -19 -8 -19 -24 5 -35 52 -73 87 -111 105 -65 29 -71 21 -64 -84
4 -65 3 -91 -6 -91 -8 0 -11 48 -11 165 l0 165 608 -2 607 -3 0 -165z m-24145
152 c0 -13 -12 -22 -22 -16 -10 6 -1 24 13 24 5 0 9 -4 9 -8z m9128 -7 c11 -4
13 -73 9 -360 -2 -195 -6 -357 -9 -360 -3 -3 -137 -6 -299 -6 l-294 -1 3 358
c2 198 7 362 10 366 4 4 36 8 72 10 89 4 492 -2 508 -7z m495 6 l147 -1 -2
-362 -3 -363 -299 -3 -299 -2 6 232 c4 128 7 295 7 371 l0 138 148 -5 c81 -2
213 -5 295 -5z m780 -216 c-1 -121 -2 -286 -2 -366 l-1 -146 -292 1 -293 1 -3
362 -2 363 177 3 c98 1 232 3 298 2 l120 0 -2 -220z m626 205 c4 -8 6 -172 5
-365 l-2 -350 -296 -3 -296 -2 2 362 3 362 25 7 c14 4 143 6 288 6 227 -1 265
-3 271 -17z m514 13 l117 -6 0 -353 c0 -196 -4 -355 -9 -358 -5 -3 -138 -9
-296 -12 l-287 -7 6 362 c3 200 9 367 12 372 6 11 251 11 457 2z m4485 -360
l2 -362 -162 -3 c-90 -2 -220 -2 -289 0 l-126 3 -7 91 c-8 121 -8 623 1 631 4
4 135 6 292 5 l286 -3 3 -362z m613 245 c0 -68 1 -230 1 -360 1 -131 -2 -241
-6 -245 -8 -8 -554 -5 -567 3 -10 6 -12 707 -3 717 4 4 135 7 291 7 l283 0 1
-122z m621 60 c1 -35 3 -198 3 -363 l0 -300 -279 -3 c-154 -1 -283 1 -287 5
-10 10 -23 698 -14 712 4 7 102 11 290 11 l283 0 4 -62z m623 -55 c8 -115 2
-599 -6 -608 -3 -2 -133 -5 -289 -6 l-284 -2 -3 367 -3 366 289 0 289 0 7
-117z m568 110 l57 -6 0 -358 0 -359 -242 -2 c-214 -1 -330 1 -334 5 -6 6 -15
708 -9 716 7 12 420 15 528 4z m616 1 l61 -7 0 -358 0 -359 -257 -1 c-142 -1
-271 -2 -287 -3 -15 -1 -30 3 -31 9 -7 21 -15 712 -8 718 8 9 441 9 522 1z
m674 -4 c3 -3 7 -168 9 -368 l4 -363 -155 1 c-86 0 -218 3 -293 7 l-138 6 0
364 0 365 284 -3 c156 -2 286 -6 289 -9z m631 -67 c3 -42 6 -209 6 -371 l0
-294 -282 7 c-156 4 -287 11 -293 16 -6 6 -11 145 -13 364 l-3 355 289 0 289
0 7 -77z m622 64 c5 -4 9 -169 11 -367 l3 -359 -293 6 c-160 3 -293 7 -295 8
-2 2 -5 161 -7 354 -4 322 -3 351 13 361 20 12 556 9 568 -3z m506 6 l126 -6
4 -356 c2 -196 3 -357 3 -358 -3 -7 -574 -7 -581 -1 -8 9 -18 692 -10 714 4
11 36 14 168 14 90 0 220 -3 290 -7z m747 -8 c6 -6 11 -143 12 -365 l1 -355
-246 -3 c-136 -1 -268 1 -293 5 l-47 8 -4 348 c-2 191 -2 354 1 361 6 16 560
17 576 1z m634 0 c4 -8 7 -173 7 -367 l1 -353 -285 -2 c-177 -1 -288 1 -291 7
-4 6 -9 170 -12 364 l-6 355 39 3 c21 2 152 5 290 6 218 2 252 1 257 -13z
m2322 5 l104 0 1 -366 0 -367 -260 5 c-143 3 -262 7 -264 9 -2 2 -7 165 -10
361 l-7 357 153 3 c84 2 159 2 166 1 8 -2 60 -3 117 -3z m-22529 -160 c1 -85
-1 -161 -4 -167 -3 -10 -56 -13 -218 -13 l-214 0 -1 68 c-1 37 -4 78 -8 92
-16 58 -117 20 -163 -60 -13 -22 -25 -40 -28 -40 -3 0 -16 18 -29 39 -37 61
-136 113 -155 83 -3 -5 -8 -46 -12 -90 -4 -45 -11 -82 -15 -82 -7 0 -15 104
-10 133 3 19 -22 47 -42 47 -37 0 -115 -56 -134 -95 -9 -19 -20 -35 -23 -35
-3 0 -14 16 -23 35 -19 39 -97 95 -134 95 -31 0 -47 -40 -40 -101 3 -25 1 -52
-4 -60 -5 -9 -9 44 -9 142 0 86 3 159 7 162 3 4 288 6 632 5 l626 -3 1 -155z
m647 141 c8 -8 11 -554 3 -706 l-1 -30 -175 1 c-96 1 -231 2 -300 3 l-125 1 1
98 c0 53 1 219 2 369 l2 272 108 3 c198 6 475 -1 485 -11z m653 -59 c7 -74 -3
-662 -11 -671 -4 -3 -98 -3 -487 -2 l-108 1 0 370 0 370 188 2 c103 2 237 4
299 5 l111 1 8 -76z m646 -292 c-2 -200 -5 -367 -8 -370 -3 -3 -137 -5 -297
-5 l-292 0 0 365 0 365 40 6 c22 4 157 6 300 5 l260 -1 -3 -365z m653 358 c2
-2 0 -168 -3 -370 l-5 -368 -273 -1 c-151 -1 -286 -2 -301 -3 l-28 -1 0 108
c0 59 1 226 3 372 l2 264 138 3 c153 3 463 0 467 -4z m647 -348 c-2 -195 -6
-363 -8 -373 -5 -16 -26 -17 -302 -15 l-297 3 1 235 c3 526 1 498 27 503 12 2
148 3 302 3 l280 -1 -3 -355z m646 65 c2 -159 0 -326 -3 -370 l-6 -80 -301 -2
-300 -2 4 360 c3 198 9 364 14 369 13 13 68 15 344 15 l245 0 3 -290z m622
286 l25 -7 -4 -350 c-2 -245 -6 -352 -15 -360 -7 -8 -105 -13 -297 -17 l-287
-6 -4 37 c-4 31 -1 365 5 622 2 70 3 75 27 81 33 9 518 9 550 0z m663 -351
c-2 -195 -5 -361 -8 -368 -3 -10 -68 -12 -297 -10 l-293 3 0 335 c0 184 1 347
3 362 2 15 12 29 21 31 9 3 142 4 296 3 l280 -1 -2 -355z m642 3 c0 -258 -3
-355 -12 -364 -8 -8 -95 -13 -291 -17 -231 -4 -281 -2 -288 9 -9 14 -6 707 3
721 2 5 136 7 296 6 l292 -3 0 -352z m16225 295 c1 -35 2 -90 4 -123 2 -33 5
-168 6 -300 l3 -240 -258 -3 c-142 -1 -262 1 -267 6 -4 4 -11 168 -14 365 l-7
357 266 0 267 0 0 -62z m1164 15 c3 -27 6 -190 6 -363 l1 -315 -255 0 c-157 0
-259 4 -264 10 -5 6 -12 169 -16 363 l-6 352 264 0 263 0 7 -47z m-25172 -315
c-1 -194 -4 -361 -5 -371 -2 -17 -21 -18 -301 -19 l-299 -1 2 359 c2 233 6
363 13 371 8 10 79 13 302 13 l292 0 -4 -352z m648 67 c-1 -269 -6 -416 -15
-442 -5 -16 -580 -19 -590 -4 -3 6 -2 172 1 371 l7 360 299 -2 299 -3 -1 -280z
m-1360 225 c0 -5 -4 -10 -10 -10 -5 0 -10 5 -10 10 0 6 5 10 10 10 6 0 10 -4
10 -10z m23478 -144 c61 -70 67 -185 14 -261 -32 -45 -71 -71 -95 -62 -15 6
-17 28 -17 190 0 101 3 186 6 190 11 10 59 -20 92 -57z m-10241 34 c18 -10 45
-38 60 -61 56 -85 28 -230 -56 -286 -56 -38 -58 -34 -62 85 -6 157 1 282 15
282 6 0 25 -9 43 -20z m265 -172 c2 -106 2 -195 1 -197 -7 -12 -63 16 -94 49
-84 88 -69 250 30 317 60 40 59 42 63 -169z m197 158 c36 -32 71 -114 71 -166
-1 -57 -34 -124 -82 -163 -64 -52 -68 -43 -68 166 0 101 3 187 7 190 10 11 45
-3 72 -27z m244 -38 c2 -40 6 -129 7 -197 l1 -124 -28 7 c-108 26 -158 178
-98 297 24 46 73 89 101 89 7 0 14 -28 17 -72z m9097 52 c69 -49 100 -181 61
-265 -32 -71 -109 -120 -125 -79 -3 9 -6 94 -6 190 0 170 0 174 21 174 11 0
34 -9 49 -20z m258 -178 c1 -105 0 -192 -3 -192 -3 0 -20 6 -39 14 -126 53
-143 276 -27 354 65 42 66 39 69 -176z m406 161 c8 -49 8 -338 0 -346 -9 -9
-56 11 -83 36 -43 40 -60 94 -55 172 6 80 21 113 66 149 47 37 64 34 72 -11z
m-22186 -3 c68 -42 102 -173 66 -258 -24 -59 -108 -134 -128 -115 -8 9 -8 378
1 386 11 11 26 8 61 -13z m270 -148 c3 -166 -4 -222 -27 -230 -23 -8 -107 90
-118 139 -22 91 11 192 77 237 62 42 65 36 68 -146z m152 146 c60 -41 93 -142
76 -233 -10 -51 -101 -145 -141 -145 -7 0 -6 364 1 384 8 22 25 20 64 -6z
m268 -172 c-1 -107 -6 -197 -10 -201 -3 -4 -19 0 -35 8 -81 43 -130 159 -103
243 25 76 88 144 133 144 18 0 19 -11 15 -194z m10302 184 c0 -5 -4 -10 -9
-10 -6 0 -13 5 -16 10 -3 6 1 10 9 10 9 0 16 -4 16 -10z m73 -10 c20 -24 33
-25 41 -4 3 8 11 12 18 8 17 -11 68 -13 74 -3 8 14 27 10 53 -11 16 -14 20
-24 13 -33 -5 -6 -13 -23 -17 -36 -6 -20 -4 -23 13 -19 18 5 19 3 10 -31 -5
-20 -10 -45 -11 -56 -1 -11 -5 -25 -9 -31 -4 -6 -2 -25 4 -41 9 -25 8 -37 -5
-66 -10 -19 -14 -42 -11 -51 9 -23 -37 -37 -110 -33 -34 2 -67 6 -73 10 -6 4
-23 0 -39 -8 -23 -11 -37 -12 -72 -2 -35 9 -45 9 -51 -2 -7 -11 -13 -8 -26 13
-12 18 -14 30 -7 39 5 6 13 22 16 35 6 16 3 22 -8 22 -19 0 -19 4 -6 50 7 26
6 39 -5 57 -17 26 -19 70 -5 109 6 16 7 31 1 38 -5 6 -12 22 -16 35 -7 23 -6
24 26 16 19 -4 44 -8 56 -9 12 0 25 -4 29 -8 13 -13 38 -8 64 12 31 24 32 24
53 0z m-12573 -18 l55 -7 -3 -255 c-2 -144 -8 -259 -13 -265 -6 -6 -92 -10
-217 -10 l-207 0 2 260 c2 143 5 265 7 272 4 10 44 13 163 12 87 -1 183 -4
213 -7z m13128 -175 c6 -7 12 -51 14 -97 l3 -85 37 1 c46 1 96 37 123 88 11
20 22 36 25 36 3 0 15 -18 28 -40 25 -45 99 -93 134 -88 22 3 23 7 24 98 l0
95 31 3 31 3 7 -102 7 -101 36 6 c43 7 100 51 121 94 9 17 19 32 23 32 3 0 15
-15 26 -34 27 -46 85 -88 124 -89 l33 -2 3 98 3 98 97 -3 97 -3 3 -365 c3
-372 -3 -539 -19 -523 -5 5 -10 103 -11 218 l-3 210 -82 3 -83 3 0 115 c0 99
-2 116 -17 121 -28 11 -105 -39 -140 -91 -31 -46 -32 -46 -44 -24 -32 63 -129
132 -159 113 -6 -4 -10 -52 -10 -116 l0 -109 -39 0 -39 0 1 113 2 112 -30 -3
c-45 -5 -86 -33 -124 -84 l-34 -46 -31 46 c-18 26 -50 56 -77 71 -70 39 -79
26 -79 -110 l0 -109 -85 0 -85 0 0 -189 c0 -192 -5 -255 -21 -245 -10 6 -12
877 -2 887 13 13 170 8 181 -6z m10218 -87 c3 -47 9 -89 13 -93 17 -17 69 9
123 63 l57 57 25 -36 c32 -45 85 -81 122 -84 l29 -2 5 95 c3 52 9 95 15 95 18
0 26 -93 23 -268 -3 -193 -19 -231 -30 -73 -4 55 -11 103 -16 108 -6 6 -26 5
-51 -3 -39 -11 -83 -50 -110 -96 -10 -16 -15 -14 -53 27 -55 59 -87 80 -120
80 l-28 0 0 -111 c0 -84 -3 -110 -12 -107 -9 3 -15 36 -18 99 -5 101 -11 119
-39 119 -32 0 -111 -58 -128 -95 -9 -19 -19 -35 -22 -35 -3 1 -15 15 -26 32
-31 48 -88 90 -126 91 l-34 2 0 -328 c0 -180 -3 -327 -7 -327 -5 0 -8 109 -9
243 0 133 -3 327 -5 430 -4 132 -2 187 5 182 6 -3 11 -37 11 -74 0 -78 12 -96
55 -85 34 8 115 84 115 107 0 27 13 20 53 -28 44 -52 87 -77 125 -73 27 3 27
3 30 97 3 116 20 111 28 -9z m-21516 -24 c0 -52 4 -98 10 -101 16 -10 86 14
111 38 13 12 36 38 52 57 26 33 28 34 40 16 30 -47 69 -84 106 -101 64 -28 71
-20 71 84 0 82 9 115 27 97 8 -7 4 -426 -3 -438 -17 -27 -24 4 -24 103 l0 112
-36 -6 c-50 -8 -111 -50 -137 -94 -19 -33 -22 -34 -31 -18 -39 65 -83 98 -149
110 l-37 7 0 -91 c0 -109 1 -101 -13 -126 -10 -16 -13 2 -17 95 l-5 115 -38
-1 c-45 -2 -104 -44 -127 -92 -8 -17 -19 -32 -25 -31 -5 0 -22 19 -37 44 -40
66 -140 110 -152 68 -2 -10 -8 -148 -11 -308 -4 -159 -9 -292 -11 -294 -8 -8
-2 784 6 809 8 25 8 25 9 -5 5 -103 10 -138 19 -147 20 -20 79 11 133 70 37
40 54 53 57 42 9 -29 100 -108 132 -115 43 -10 52 2 55 77 4 109 5 118 15 118
6 0 10 -38 10 -94z m580 14 c13 -8 13 -10 -2 -10 -9 0 -20 5 -23 10 -8 13 5
13 25 0z m21672 -46 c-1 -31 3 -53 13 -64 17 -19 11 -45 -12 -54 -13 -6 -13
-9 1 -31 19 -28 13 -47 -12 -43 -10 1 -23 -1 -30 -6 -8 -4 -44 -4 -80 0 -37 5
-79 8 -94 6 l-26 -2 -4 108 c-2 59 -2 115 0 124 4 16 16 18 126 13 l121 -4 -3
-47z m-21543 30 c30 -2 58 -7 63 -12 9 -9 -9 -99 -23 -116 -4 -4 -1 -29 7 -55
7 -25 14 -49 14 -52 0 -12 -54 -17 -72 -8 -12 7 -18 6 -18 -2 0 -7 -15 -9 -49
-4 -27 4 -66 2 -87 -4 -42 -12 -65 -1 -46 21 5 7 12 57 14 110 l3 98 35 6 c53
9 62 13 54 25 -5 9 1 10 22 4 16 -4 53 -9 83 -11z m10685 -147 c28 -16 47 -38
69 -80 16 -32 26 -61 23 -64 -12 -12 -113 -15 -134 -4 -16 9 -20 19 -17 53 1
24 3 60 4 81 0 20 4 37 9 37 4 0 25 -10 46 -23z m264 -70 l3 -87 -64 0 c-86 0
-94 11 -61 79 25 50 87 105 109 98 5 -2 11 -43 13 -90z m179 73 c31 -18 93
-111 93 -138 0 -10 -18 -12 -72 -10 l-73 3 -3 83 c-3 91 1 96 55 62z m271 -45
c5 -102 3 -105 -78 -105 -79 0 -83 5 -51 68 27 52 90 106 116 98 6 -1 11 -29
13 -61z m9094 30 c35 -24 78 -94 78 -128 0 -14 -11 -17 -69 -17 -80 0 -81 1
-81 94 0 86 10 93 72 51z m259 -56 c3 -41 4 -77 1 -81 -2 -5 -35 -8 -74 -8
l-71 0 6 37 c4 21 15 49 25 63 23 31 82 72 96 67 6 -2 14 -37 17 -78z m156 54
c26 -18 78 -117 68 -132 -8 -14 -100 -14 -126 -1 -16 9 -19 22 -19 79 0 37 3
71 7 74 8 9 40 -1 70 -20z m253 -29 c3 -27 3 -64 1 -81 l-3 -33 -63 0 c-92 0
-103 23 -47 98 26 36 80 74 97 69 6 -2 12 -26 15 -53z m-22210 11 c34 -17 89
-93 92 -127 3 -22 -1 -23 -65 -28 -37 -3 -71 -4 -76 -2 -9 3 -5 129 5 160 4
15 9 15 44 -3z m444 -18 c36 -26 80 -115 64 -134 -6 -8 -34 -13 -74 -13 l-64
0 0 83 c0 46 3 86 6 90 8 8 33 -2 68 -26z m254 -54 l-3 -88 -70 0 -70 0 2 29
c3 37 46 100 87 126 53 34 57 30 54 -67z m-418 65 c0 -5 0 -42 0 -84 l0 -75
-71 4 c-38 3 -73 7 -76 10 -12 13 22 82 59 119 28 28 46 38 64 36 14 -2 24 -6
24 -10z m12328 -190 c3 -17 -12 -18 -215 -18 -120 0 -351 -2 -513 -4 -301 -4
-370 0 -377 21 -5 15 101 18 682 18 392 0 420 -1 423 -17z m10004 4 c6 -6 6
-12 0 -15 -5 -4 -260 -7 -568 -7 l-559 -2 -3 22 -4 22 563 -6 c328 -3 566 -9
571 -14z m-21496 -34 c4 -5 4 -11 0 -15 -11 -11 -782 -17 -993 -8 -164 7 -224
19 -130 28 81 7 1115 2 1123 -5z m21541 -55 c-3 -10 -5 -2 -5 17 0 19 2 27 5
18 2 -10 2 -26 0 -35z m-10052 15 c26 -25 -28 -28 -550 -28 -328 0 -546 4
-550 9 -16 28 44 31 562 28 292 -1 534 -5 538 -9z m10013 -6 c-3 -16 -39 -17
-563 -20 -308 -1 -566 0 -574 3 -10 4 -11 8 -1 20 10 13 92 15 577 15 532 0
564 -1 561 -18z m-21455 -135 c-3 -62 -7 -114 -9 -116 -2 -2 -4 51 -4 118 0
75 4 120 10 116 5 -3 7 -51 3 -118z m-43 98 c0 -13 -51 -15 -397 -16 -489 -1
-767 1 -771 6 -22 22 49 25 589 25 508 0 579 -2 579 -15z m11486 -27 c15 -16
-10 -22 -119 -29 -132 -8 -962 -3 -976 6 -6 3 -8 11 -5 18 3 9 130 12 548 12
299 0 548 -3 552 -7z m10014 -12 c0 -22 -60 -26 -285 -22 -110 2 -347 4 -527
5 -196 1 -328 5 -328 10 0 17 43 18 598 20 465 1 542 -1 542 -13z m-21503 -32
c2 -6 -11 -14 -29 -18 -55 -11 -1130 -8 -1141 3 -7 7 -6 12 4 16 8 3 181 6
384 7 668 5 778 4 782 -8z m11493 -38 c0 -8 -10 -16 -23 -20 -32 -8 -1072 -8
-1080 0 -4 4 -2 13 4 21 17 20 1099 19 1099 -1z m10008 -3 c-3 -17 -38 -18
-560 -18 -306 0 -559 3 -563 7 -26 25 28 28 566 28 528 0 560 -1 557 -17z
m-21502 -35 c4 -5 4 -11 0 -15 -4 -5 -271 -9 -592 -11 -522 -3 -584 -2 -584
12 0 13 19 16 118 18 249 6 1051 3 1058 -4z m11462 -33 c17 -3 32 -10 32 -15
0 -6 -131 -11 -337 -11 -186 -1 -432 -2 -548 -3 -209 -1 -210 -1 -213 21 l-3
22 518 -5 c285 -2 533 -6 551 -9z m10040 0 c64 -24 -84 -29 -911 -26 -178 1
-228 4 -225 14 4 9 74 13 289 17 322 6 827 3 847 -5z m-21498 -48 c0 -21 -113
-27 -515 -27 -384 0 -665 9 -665 21 0 14 40 15 613 18 482 2 567 0 567 -12z
m11488 -40 c3 -17 -21 -18 -541 -15 -300 2 -549 6 -553 11 -4 4 -4 10 0 15 4
4 193 8 419 10 227 1 426 4 442 5 17 1 75 0 130 -3 86 -4 100 -8 103 -23z
m9755 17 c194 -5 265 -10 257 -18 -12 -12 -1072 -23 -1118 -11 -38 9 -14 23
48 27 123 8 561 8 813 2z m-21254 -49 c47 -18 -64 -23 -587 -28 -535 -4 -583
-3 -580 12 2 12 18 17 58 21 72 7 1091 2 1109 -5z"/>
<path d="M1138 4722 l-78 -3 0 -602 c0 -362 4 -608 10 -617 8 -13 63 -15 375
-18 202 -1 380 1 398 6 33 8 130 129 368 459 l109 151 0 306 c0 293 -1 306
-20 316 -17 9 -932 11 -1162 2z m679 -50 c16 -10 28 -311 18 -446 l-7 -96
-364 0 -364 0 0 275 0 275 353 0 c193 0 358 -4 364 -8z m465 -264 l3 -273 -30
-50 c-16 -27 -91 -132 -167 -232 -75 -100 -149 -200 -164 -222 -15 -23 -31
-41 -35 -41 -5 0 -9 213 -9 473 0 259 -5 501 -10 536 -5 36 -7 68 -4 73 3 4
97 8 209 8 l204 0 3 -272z m-454 -330 c9 -9 12 -81 12 -264 0 -139 -3 -259 -6
-268 -5 -14 -47 -16 -364 -16 l-358 0 -4 125 c-2 69 -2 192 0 275 l3 150 347
3 c191 1 349 3 353 5 3 1 10 -3 17 -10z"/>
<path d="M3617 4713 c-4 -3 -7 -139 -7 -301 1 -251 3 -299 17 -326 9 -17 57
-89 108 -161 50 -71 133 -191 184 -267 51 -75 100 -143 110 -152 16 -15 139
-16 1364 -16 740 0 1353 3 1361 6 15 6 16 69 14 613 l-3 606 -1571 3 c-864 1
-1574 -1 -1577 -5z m639 -304 c5 -215 3 -268 -7 -275 -16 -9 -573 -9 -588 1
-7 4 -11 97 -11 276 l0 269 300 -2 301 -3 5 -266z m634 252 c6 -12 10 -118 10
-275 l0 -255 -228 -3 c-126 -2 -262 -1 -303 2 l-74 5 -2 260 c-2 143 -1 266 2
273 3 9 71 12 294 12 277 0 291 -1 301 -19z m647 3 c8 -20 10 -521 2 -528 -10
-11 -581 -8 -591 2 -11 11 -14 514 -4 531 5 8 93 11 297 11 253 0 290 -2 296
-16z m651 -253 c2 -186 -1 -268 -9 -277 -9 -12 -62 -13 -297 -9 -157 3 -288 8
-291 11 -8 8 -15 510 -7 529 5 13 44 15 303 13 l298 -3 3 -264z m495 260 l47
-1 0 -269 0 -269 -27 -5 c-16 -3 -127 -5 -248 -4 l-220 2 -3 272 -2 272 117 3
c113 3 233 3 336 -1z m-1142 -603 c4 -6 8 -122 8 -258 2 -216 0 -250 -14 -264
-14 -14 -53 -16 -300 -16 l-284 0 -6 43 c-3 23 -5 146 -3 272 l3 230 70 5
c125 9 519 0 526 -12z m-1287 -10 c3 -13 6 -137 6 -276 0 -193 -3 -254 -12
-257 -7 -2 -53 -1 -103 3 l-89 7 -70 100 c-38 55 -123 176 -188 268 -65 92
-118 170 -118 173 0 2 128 4 284 4 l284 0 6 -22z m641 -253 l0 -270 -289 0
-290 0 -6 25 c-4 14 -10 129 -14 256 -7 208 -6 233 9 248 15 15 47 16 303 14
l287 -3 0 -270z m1234 269 l61 -7 0 -262 0 -263 -27 -5 c-16 -3 -151 -5 -301
-4 l-273 2 -2 260 c-1 143 2 266 6 273 6 9 66 12 241 12 128 0 261 -3 295 -6z
m596 -269 l0 -270 -245 0 -245 0 -3 273 -2 272 247 -2 248 -3 0 -270z"/>
<path d="M6968 4704 c-12 -11 -10 -1202 1 -1209 16 -9 3003 -7 3013 3 7 7 11
1027 4 1156 -1 24 -7 31 -31 39 -37 11 -2977 22 -2987 11z m519 -56 c11 -8 13
-62 11 -267 l-3 -256 -247 -3 c-137 -1 -248 1 -248 5 -4 57 -5 479 -2 506 4
32 8 36 36 39 68 7 440 -13 453 -24z m547 13 l108 -6 -1 -260 c-1 -142 -4
-262 -7 -265 -9 -9 -548 -12 -572 -3 l-23 9 0 258 c-1 205 2 261 13 267 15 10
316 10 482 0z m741 -267 l0 -269 -298 -3 -297 -2 2 267 3 268 85 5 c47 3 180
5 295 4 l210 -1 0 -269z m593 267 l52 -1 0 -270 0 -270 -294 0 c-252 0 -295 2
-300 15 -4 11 -10 462 -6 526 0 4 111 5 248 3 136 -1 271 -3 300 -3z m583 -63
c0 -35 2 -153 4 -262 1 -110 1 -205 -1 -210 -5 -12 -465 -13 -484 -1 -11 7
-15 517 -3 528 3 4 114 7 245 7 l238 0 1 -62z m-2449 -773 c1 -140 2 -263 2
-272 1 -17 -17 -18 -249 -18 l-250 0 -3 267 c-2 248 -1 267 15 271 10 3 123 5
251 6 l232 1 2 -255z m633 245 c8 -13 8 -518 -1 -531 -3 -5 -135 -9 -300 -9
l-294 0 0 269 0 270 43 3 c23 2 155 4 293 6 181 3 254 0 259 -8z m644 -5 c6
-3 8 -22 6 -43 -2 -20 -4 -139 -4 -264 l-1 -228 -284 0 c-156 0 -291 3 -299 6
-23 8 -25 505 -2 527 12 13 58 15 295 12 154 -2 284 -6 289 -10z m629 0 c9 -3
12 -65 12 -264 l0 -260 -37 -3 c-21 -2 -155 -1 -298 2 l-260 5 0 260 0 260 70
5 c82 6 494 2 513 -5z m450 5 l104 0 -4 -257 c-1 -142 -7 -264 -11 -270 -6
-10 -67 -13 -248 -13 l-239 0 2 268 3 267 55 6 c30 3 96 4 145 2 50 -1 137 -2
193 -3z"/>
<path d="M10206 4702 l-38 -3 5 -607 c4 -334 6 -607 7 -607 0 0 549 1 1220 3
l1220 2 263 134 262 134 -4 469 c-1 257 -4 469 -5 469 -3 4 -2893 9 -2930 6z
m486 -51 c7 -6 13 -520 6 -527 -3 -3 -329 -7 -436 -5 l-52 1 2 268 3 267 190
5 c192 6 274 3 287 -9z m1249 -82 c8 -115 13 -438 7 -444 -5 -5 -568 -8 -573
-3 -3 3 -8 463 -6 515 l1 23 238 2 c130 2 257 3 282 2 l45 0 6 -95z m-609
-131 c2 -123 1 -243 -2 -268 l-5 -45 -292 -3 -293 -2 0 270 0 270 295 0 294 0
3 -222z m1243 -53 l0 -270 -289 3 -290 2 -4 261 c-3 213 -2 263 9 270 8 5 140
8 294 6 l280 -2 0 -270z m530 252 c3 -12 4 -134 3 -272 l-3 -250 -50 -3 c-27
-2 -137 -1 -242 3 l-193 7 0 269 0 269 240 0 c239 -1 240 -1 245 -23z m-2406
-572 c10 -10 12 -498 2 -514 -7 -11 -60 -15 -250 -19 l-241 -5 0 266 0 267 23
5 c54 12 453 12 466 0z m630 -1 c8 -8 4 -515 -4 -522 -4 -4 -136 -7 -293 -7
l-287 0 -2 253 c-1 139 0 259 3 267 4 11 28 15 92 17 118 4 485 -2 491 -8z
m619 1 c19 -7 17 -521 -2 -528 -7 -3 -139 -5 -292 -4 l-279 2 -3 267 -3 267
28 3 c39 4 535 -2 551 -7z m627 3 c9 -9 9 -517 0 -526 -3 -4 -135 -8 -291 -10
l-284 -3 -1 135 c-1 75 -1 159 -1 186 0 221 0 218 30 223 47 6 540 2 547 -5z
m533 -129 l3 -137 -31 -26 c-40 -33 -57 -33 -57 1 0 17 -9 33 -22 41 -25 17
-27 32 -5 32 9 0 14 6 12 13 -3 6 -17 12 -33 12 -23 0 -30 -6 -37 -30 -10 -39
-4 -55 20 -49 24 7 44 -17 32 -36 -8 -12 -13 -13 -29 -3 -24 15 -33 6 -18 -18
7 -12 8 -22 2 -28 -24 -23 -306 -162 -316 -155 -9 5 -10 64 -6 223 4 119 7
233 7 253 l0 37 148 3 c81 2 188 3 237 3 l90 0 3 -136z"/>
<path d="M15813 4683 c-3 -7 -1 -218 4 -470 l8 -458 265 -133 265 -132 893 -3
894 -2 -4 597 c-1 328 -5 599 -8 602 -3 2 -525 6 -1159 8 -888 2 -1155 0
-1158 -9z m460 -32 l57 -1 -2 -262 -3 -263 -45 -5 c-25 -3 -132 -4 -237 -2
l-193 3 0 264 0 264 23 3 c19 3 227 2 400 -1z m1295 -221 c1 -118 0 -239 -3
-268 l-6 -52 -287 2 -287 3 3 260 c1 143 4 265 6 270 2 7 102 8 287 5 l284 -5
3 -215z m303 220 l229 0 0 -270 0 -270 -250 0 -250 0 0 268 c0 148 3 272 7
276 4 3 13 4 21 1 7 -3 117 -5 243 -5z m-923 -259 c2 -179 -1 -258 -9 -267 -9
-11 -52 -14 -199 -14 -103 0 -228 3 -278 6 l-92 7 0 264 0 263 288 -2 287 -3
3 -254z m617 -591 l0 -265 -287 -3 -288 -2 -1 107 c-4 363 -3 433 3 435 4 2
135 1 290 -2 l283 -5 0 -265z m-1233 148 c4 -167 -2 -398 -10 -398 -4 0 -111
53 -237 118 l-230 117 -3 143 -3 142 240 0 240 0 3 -122z m616 -150 l2 -268
-274 0 c-151 0 -281 3 -290 6 -14 5 -16 38 -16 263 0 142 3 261 7 264 4 4 133
6 287 5 l281 -3 3 -267z m1154 5 c3 -147 3 -270 -1 -273 -3 -3 -114 -3 -246 0
l-240 5 -3 255 c-1 140 0 260 2 266 3 8 75 12 244 13 l239 2 5 -268z"/>
<path d="M18755 4690 l-460 -5 1 -593 c1 -326 3 -595 6 -597 2 -3 526 -5 1164
-5 l1159 0 3 599 2 599 -122 7 c-121 7 -851 5 -1753 -5z m58 -207 c4 -91 7
-213 7 -270 l0 -103 -245 0 -245 0 0 265 c0 146 1 266 3 267 4 3 451 13 463
10 7 -2 13 -62 17 -169z m1229 159 c4 -4 8 -124 10 -267 l3 -260 -50 -3 c-27
-2 -159 -1 -292 3 l-243 7 0 262 c0 145 3 266 7 269 8 9 556 -2 565 -11z
m-625 0 c8 -5 13 -80 15 -267 l3 -260 -286 -3 -286 -2 -7 117 c-7 126 -1 397
9 413 7 12 534 14 552 2z m1170 -4 c4 -7 7 -128 7 -268 l0 -255 -170 -3 c-93
-2 -206 0 -251 3 l-83 7 0 264 0 264 244 0 c185 0 247 -3 253 -12z m-1772
-578 c3 -5 2 -126 -1 -269 l-7 -261 -227 0 c-162 0 -229 3 -238 12 -13 13 -18
509 -5 522 10 10 472 6 478 -4z m622 -110 c2 -63 0 -184 -3 -267 l-6 -153
-290 0 -291 0 5 258 c3 142 8 264 12 270 5 9 79 12 289 10 l282 -3 2 -115z
m608 108 c9 -26 13 -247 8 -386 l-6 -142 -286 2 -286 3 -3 255 c-1 140 0 260
3 267 7 19 564 19 570 1z m539 4 c5 -8 9 -233 7 -409 l-1 -123 -250 0 -250 0
0 270 0 270 244 0 c135 0 247 -3 250 -8z"/>
<path d="M20816 4693 c-3 -4 -6 -276 -6 -605 l0 -598 1128 -1 c620 -1 1166 -1
1214 -1 l88 0 87 81 c73 67 89 77 91 61 7 -45 36 -17 56 56 8 28 43 63 238
243 l167 154 0 295 c-1 162 -3 301 -6 309 -4 11 -242 13 -1528 13 -837 -1
-1525 -4 -1529 -7z m503 -47 c8 -9 11 -87 9 -272 l-3 -259 -229 -3 c-126 -1
-233 1 -237 5 -5 5 -9 125 -9 268 l-1 260 148 5 c82 3 185 6 230 8 59 2 83 -1
92 -12z m634 -21 c3 -16 3 -135 1 -264 -2 -178 -6 -236 -16 -242 -7 -5 -137
-7 -288 -6 l-275 2 -5 160 c-3 88 -4 208 -2 267 l3 107 87 3 c48 2 178 3 289
3 l201 1 5 -31z m613 24 c11 -9 14 -61 14 -269 l0 -258 -82 -4 c-125 -6 -485
-1 -497 7 -11 6 -17 516 -7 526 2 2 129 5 281 7 199 2 281 -1 291 -9z m629 1
c11 -17 6 -513 -5 -524 -15 -15 -555 -15 -569 -1 -8 8 -9 96 -4 273 l6 262
283 0 c170 0 285 -4 289 -10z m640 -257 c0 -144 -3 -264 -7 -268 -10 -10 -561
-6 -571 4 -10 10 -13 504 -3 520 5 8 91 11 294 9 l287 -3 0 -262z m-1893 -331
c11 -11 16 -508 5 -519 -10 -9 -276 -12 -460 -5 l-117 4 2 262 3 261 245 6
c263 6 308 5 322 -9z m1255 4 c1 -1 3 -121 3 -267 l1 -264 -288 0 -288 0 -5
200 c-3 110 -4 230 -2 267 l3 67 102 3 c106 3 470 -1 474 -6z m582 -2 c6 -5
-190 -188 -206 -192 -11 -3 -11 1 -2 22 9 20 9 35 0 67 -16 53 -36 45 -37 -14
-1 -56 -5 -61 -39 -53 -32 8 -37 56 -6 56 11 0 23 5 27 11 9 15 -16 30 -46 27
-21 -3 -26 -9 -31 -48 -9 -60 3 -80 47 -80 22 0 37 -6 41 -15 11 -29 -60 -85
-109 -85 -17 0 -19 -3 -10 -12 7 -7 12 -18 12 -25 0 -21 -25 -15 -35 10 -12
27 -56 35 -74 13 -18 -22 -5 -39 20 -25 29 15 35 4 13 -27 -11 -14 -31 -47
-45 -72 -42 -74 -49 -67 -50 50 -1 105 -1 389 0 398 1 6 524 0 530 -6z m-2449
-264 l0 -270 -244 0 -244 0 -1 262 c0 144 2 265 5 270 3 4 113 8 245 8 l239 0
0 -270z m1248 20 c1 -135 0 -255 -3 -268 l-5 -22 -288 2 -287 3 -3 268 -2 267
292 -2 293 -3 3 -245z"/>
<path d="M24805 4690 c-4 -6 -7 -143 -8 -304 l-1 -294 40 -50 c161 -203 398
-495 427 -525 l34 -37 494 1 c272 1 508 4 524 8 l30 6 2 255 c0 140 1 264 1
275 0 11 -2 164 -4 340 -3 237 -8 321 -17 327 -19 12 -1515 10 -1522 -2z m450
-50 c3 -5 7 -126 8 -267 l2 -258 -205 3 c-113 2 -207 6 -210 9 -3 2 -6 121 -8
264 l-3 259 205 0 c124 0 207 -4 211 -10z m505 -261 l0 -272 -215 5 c-119 3
-218 8 -222 12 -4 3 -9 119 -11 256 l-5 250 24 9 c13 5 115 10 227 10 l202 1
0 -271z m538 -1 l2 -268 -234 0 c-222 0 -236 1 -246 19 -11 22 -14 503 -3 515
4 3 113 5 242 4 l236 -3 3 -267z m-551 -321 c4 -5 9 -125 11 -268 l3 -259
-229 0 -230 0 -89 108 c-155 185 -332 415 -327 423 6 11 850 6 861 -4z m546
-258 l2 -264 -242 -3 -243 -2 0 264 c0 240 2 265 17 268 9 2 117 3 241 2 l224
-1 1 -264z"/>
</g>
</svg>
